# Purple-Rhea mesh from point cloud
# 100 verts, 196 faces

v -0.023033 0.017973 0.003988
v -0.021282 0.018592 0.003874
v -0.015318 0.019728 -0.014995
v -0.006037 0.019389 0.011691
v 0.029216 -0.023093 -0.019172
v 0.029303 -0.022818 -0.020496
v 0.032467 0.007725 -0.000139
v -0.028681 -0.009414 0.001984
v -0.026543 -0.027029 0.010804
v -0.029380 -0.030033 -0.016635
v -0.026448 -0.016777 0.012243
v -0.024214 -0.032321 -0.002770
v -0.025392 -0.027866 0.011101
v 0.009328 -0.036905 0.023203
v -0.020885 -0.033942 0.000394
v 0.010666 -0.030888 0.028713
v 0.008664 -0.033253 0.028048
v -0.016742 0.014767 0.036194
v 0.020694 -0.024945 0.030280
v 0.027466 -0.015477 0.026209
v 0.026609 -0.005928 0.022226
v 0.026140 -0.016212 0.027480
v -0.018351 0.013937 0.035230
v -0.027581 -0.031232 -0.016392
v -0.000143 -0.036645 -0.033751
v -0.001563 -0.037375 -0.030366
v 0.000117 -0.037427 -0.031755
v -0.016316 0.018133 -0.015955
v -0.024030 -0.026498 -0.024509
v -0.005650 -0.015425 -0.038845
v -0.019344 0.016953 -0.008597
v -0.023724 0.016840 0.004059
v -0.023959 -0.027557 -0.023699
v -0.005693 -0.019627 -0.038763
v 0.006011 -0.024188 -0.037835
v 0.020466 -0.018498 -0.035006
v 0.028699 -0.024186 -0.019699
v 0.002617 -0.038058 -0.030993
v 0.009082 -0.035651 -0.029010
v 0.017262 -0.042999 -0.008320
v -0.015951 -0.036168 -0.005147
v 0.014498 -0.042418 -0.003137
v 0.020298 -0.027529 0.029623
v 0.019879 -0.028750 0.029065
v -0.019397 0.015979 0.032165
v -0.018967 0.016854 0.032160
v 0.007978 0.019981 0.002507
v -0.029146 -0.029050 -0.017240
v -0.005702 -0.017323 -0.038798
v 0.032264 0.016918 -0.006446
v 0.013839 0.014323 -0.022645
v 0.003209 -0.034217 -0.035989
v 0.019919 -0.017090 -0.034642
v 0.011258 -0.035802 -0.026161
v 0.021320 -0.021989 -0.032503
v 0.014300 -0.042712 -0.007369
v 0.020267 -0.026343 0.029965
v 0.018612 -0.040648 -0.008158
v 0.026524 -0.019124 0.027751
v -0.005601 -0.006402 -0.034020
v 0.005071 0.013768 -0.025659
v 0.018760 0.019952 -0.005828
v 0.018652 0.019966 -0.006674
v 0.030200 0.019471 -0.005813
v 0.005111 0.019948 -0.011245
v -0.002569 0.018930 -0.021089
v 0.002151 0.019827 -0.017698
v 0.004396 0.018152 -0.022012
v 0.011577 0.019975 -0.010786
v 0.005633 0.019558 -0.019013
v 0.032083 0.011633 -0.008070
v 0.031036 0.018871 -0.006037
v 0.031829 0.018594 -0.004840
v 0.002158 -0.036928 -0.033280
v 0.005710 0.012635 -0.026019
v 0.021139 -0.019547 -0.034443
v 0.021018 -0.024579 -0.029666
v 0.010138 -0.036010 0.025834
v 0.018733 -0.030962 0.025396
v 0.031711 0.018329 -0.002338
v 0.030800 0.018602 -0.000972
v 0.030633 0.018947 -0.002964
v 0.014774 0.019204 0.012780
v 0.027329 -0.017229 0.026271
v 0.025910 -0.018996 0.028200
v 0.026061 -0.027173 -0.009250
v -0.015951 0.017741 0.035298
v 0.015274 0.018968 0.013708
v 0.009840 0.019971 0.001632
v 0.002037 0.019887 -0.015469
v 0.004372 0.019594 -0.019137
v 0.013593 0.015922 -0.021593
v 0.008994 0.019980 -0.002679
v 0.028868 0.018038 -0.008362
v 0.002272 -0.035816 -0.034451
v 0.021222 -0.024015 -0.030132
v 0.019444 -0.029853 0.027148
v -0.018334 0.016918 0.035682
v 0.029524 0.016419 0.002408
v -0.015647 0.016756 0.035862

f 85 19 100
f 19 18 100
f 98 87 100
f 100 18 98
f 100 22 85
f 21 22 100
f 100 87 88
f 88 21 100
f 88 81 99
f 99 21 88
f 81 21 99
f 23 9 98
f 9 11 98
f 98 11 45
f 98 18 23
f 45 46 98
f 98 32 1
f 46 32 98
f 98 2 87
f 1 2 98
f 97 40 79
f 44 40 97
f 97 79 78
f 78 44 97
f 96 55 77
f 77 37 96
f 96 37 55
f 74 52 95
f 95 25 74
f 52 25 95
f 94 72 92
f 92 51 94
f 94 50 72
f 94 51 50
f 69 63 93
f 63 47 93
f 93 65 69
f 93 47 65
f 92 70 68
f 92 64 70
f 72 64 92
f 68 61 92
f 61 51 92
f 91 66 68
f 68 70 91
f 91 67 66
f 70 67 91
f 69 65 90
f 90 67 69
f 65 3 90
f 90 3 67
f 62 64 89
f 89 64 83
f 89 63 62
f 89 47 63
f 83 47 89
f 87 83 88
f 83 81 88
f 87 2 4
f 87 47 83
f 87 4 47
f 86 58 59
f 59 37 86
f 86 37 58
f 59 19 85
f 85 22 59
f 20 7 84
f 84 7 5
f 59 20 84
f 84 5 59
f 80 81 82
f 82 73 80
f 82 81 83
f 83 64 82
f 82 64 73
f 80 7 20
f 80 21 81
f 20 21 80
f 50 7 80
f 80 73 50
f 78 14 13
f 42 14 78
f 78 40 42
f 13 17 78
f 79 40 78
f 78 17 44
f 77 40 37
f 54 40 77
f 55 39 77
f 77 39 54
f 71 50 76
f 50 36 76
f 76 6 71
f 55 6 76
f 76 52 55
f 76 36 52
f 75 30 53
f 61 30 75
f 53 51 75
f 75 51 61
f 74 39 52
f 38 39 74
f 74 25 38
f 50 73 72
f 73 64 72
f 71 7 50
f 6 7 71
f 70 64 69
f 69 64 63
f 69 67 70
f 66 61 68
f 60 61 66
f 66 28 60
f 66 3 28
f 67 3 66
f 47 3 65
f 63 64 62
f 60 30 61
f 28 30 60
f 58 40 59
f 59 5 37
f 59 40 44
f 43 19 59
f 59 22 20
f 59 44 43
f 37 40 58
f 57 19 43
f 16 19 57
f 43 17 57
f 57 17 16
f 41 42 56
f 42 40 56
f 38 26 56
f 56 40 38
f 56 26 41
f 37 6 55
f 52 39 55
f 39 40 54
f 53 30 36
f 36 51 53
f 34 25 52
f 52 35 34
f 36 35 52
f 50 51 36
f 49 29 34
f 34 30 49
f 49 30 29
f 48 32 8
f 8 10 48
f 31 32 48
f 28 31 48
f 48 29 28
f 48 10 29
f 4 3 47
f 45 11 8
f 8 32 45
f 45 32 46
f 44 17 43
f 41 26 24
f 24 15 41
f 41 14 42
f 41 15 14
f 27 26 38
f 38 25 27
f 38 40 39
f 5 6 37
f 30 35 36
f 34 35 30
f 29 25 34
f 33 25 29
f 29 10 33
f 33 10 25
f 1 32 28
f 28 32 31
f 28 3 1
f 29 30 28
f 27 25 26
f 12 15 24
f 24 10 12
f 26 25 24
f 25 10 24
f 23 17 13
f 23 18 17
f 13 9 23
f 20 22 21
f 16 18 19
f 17 18 16
f 12 9 13
f 13 15 12
f 14 15 13
f 12 10 9
f 8 11 9
f 9 10 8
f 5 7 6
f 2 3 4
f 1 3 2
