ply
format ascii 1.0
element vertex 36
property float x
property float y
property float z
property uchar red
property uchar green
property uchar blue
end_header
-0.000000 0.160000 0.120000 255 0 0
0.027784 0.157569 0.120000 255 0 0
0.054723 0.150351 0.120000 255 0 0
0.080000 0.138564 0.120000 255 0 0
0.102846 0.122567 0.120000 255 0 0
0.122567 0.102846 0.120000 255 0 0
0.138564 0.080000 0.120000 255 0 0
0.150351 0.054723 0.120000 255 0 0
0.157569 0.027784 0.120000 255 0 0
0.160000 -0.000000 0.120000 255 0 0
0.157569 -0.027784 0.120000 255 0 0
0.150351 -0.054723 0.120000 255 0 0
0.138564 -0.080000 0.120000 255 0 0
0.122567 -0.102846 0.120000 255 0 0
0.102846 -0.122567 0.120000 255 0 0
0.080000 -0.138564 0.120000 255 0 0
0.054723 -0.150351 0.120000 255 0 0
0.027784 -0.157569 0.120000 255 0 0
0.000000 -0.160000 0.120000 255 0 0
-0.027784 -0.157569 0.120000 255 0 0
-0.054723 -0.150351 0.120000 255 0 0
-0.080000 -0.138564 0.120000 255 0 0
-0.102846 -0.122567 0.120000 255 0 0
-0.122567 -0.102846 0.120000 255 0 0
-0.138564 -0.080000 0.120000 255 0 0
-0.150351 -0.054723 0.120000 255 0 0
-0.157569 -0.027784 0.120000 255 0 0
-0.160000 -0.000000 0.120000 255 0 0
-0.157569 0.027784 0.120000 255 0 0
-0.150351 0.054723 0.120000 255 0 0
-0.138564 0.080000 0.120000 255 0 0
-0.122567 0.102846 0.120000 255 0 0
-0.102846 0.122567 0.120000 255 0 0
-0.080000 0.138564 0.120000 255 0 0
-0.054723 0.150351 0.120000 255 0 0
-0.027784 0.157569 0.120000 255 0 0
