# Purple-Rhea 3D reconstruction
# 1532 vertices

v -2.575939 -0.066074 9.094688
v -0.724629 0.989474 3.250968
v -0.724629 0.989474 3.250968
v -1.644629 -0.136549 7.608114
v -0.727355 0.273917 5.947927
v -0.653302 -1.191207 5.557186
v -0.672234 0.241041 5.933201
v -0.674496 0.193553 5.981814
v -0.674496 0.193553 5.981814
v -0.631527 -1.004878 5.622705
v -0.600956 -0.266288 5.885037
v -0.450272 0.302994 6.138956
v -0.348813 0.435153 5.918655
v -0.225125 0.312607 6.454327
v -0.144894 -1.202837 5.612464
v -0.061229 -1.070246 5.767983
v -0.034573 -1.251467 5.671369
v 0.092573 0.120973 6.242477
v 0.242466 -0.008419 6.238161
v 0.224842 -1.270978 5.747026
v 0.283665 -0.900682 5.777063
v 0.283665 -0.900682 5.777063
v 0.384149 -0.023300 6.241266
v 0.547860 0.176661 6.315339
v 0.623254 -0.202152 6.224097
v 0.795211 0.053136 6.312833
v 1.094609 0.090383 6.398282
v 1.097607 -1.108674 6.210673
v 1.074207 -1.305649 5.978839
v 1.197568 -0.615523 6.045572
v 1.290323 0.127754 6.500408
v 1.220158 -1.119016 6.064974
v 1.302295 -0.352136 6.416783
v 1.282745 -1.064739 6.166317
v 1.347571 -1.318190 6.069609
v 1.436839 -0.459092 6.365468
v 1.514876 -1.349962 6.151215
v 1.574230 -1.263447 6.184433
v 1.740462 -1.426861 6.280350
v -0.676105 0.242157 5.967286
v -0.674080 0.192532 5.977857
v -0.060616 -1.064839 5.779188
v 0.091841 0.118422 6.197316
v 0.147030 0.525230 5.469276
v 0.391543 -1.115294 5.918087
v 1.081520 -1.314923 6.019714
v 9.761756 -1.372491 49.706287
v 1.295366 -0.416750 6.417171
v 1.480293 -1.372787 6.180381
v 1.527945 -1.365084 6.205163
v -0.517810 0.210131 5.257435
v -0.374445 0.172287 5.211845
v -0.142431 -0.265875 5.091921
v -0.044779 -0.882486 4.849435
v 0.137803 -0.926163 4.900682
v 0.162504 -0.900275 4.912972
v 0.239487 -0.766120 4.887888
v 0.267084 -0.381094 5.157439
v 0.447019 -0.106089 5.262900
v 0.524886 -0.172419 5.243988
v 1.033942 -1.047917 5.852385
v 0.891505 -1.083447 4.961870
v 1.066750 0.043681 5.438189
v 1.071760 0.074711 5.445806
v 1.083027 0.107962 5.455951
v 1.083027 0.107962 5.455951
v 1.018773 -0.936092 5.066091
v 1.072872 -0.344783 5.314840
v 1.067164 -0.884061 5.127485
v -1.490749 -1.193949 7.596274
v -1.156670 0.293531 6.498044
v -1.039158 0.311959 6.337528
v -0.869646 -1.168583 5.524595
v -0.910589 0.153509 5.951468
v -0.674880 0.192198 5.974412
v -0.674880 0.192198 5.974412
v -0.669216 0.243333 5.997390
v -0.590580 -0.913428 5.684473
v -0.591636 -0.938776 5.653733
v -0.596794 0.172732 5.989549
v -0.529601 -1.188774 5.572294
v -0.716154 1.041991 3.373907
v -0.392614 -1.241136 5.673875
v -0.330540 0.159403 6.067644
v -0.100125 0.410476 6.046741
v -0.101350 0.419232 6.041875
v -0.058042 -1.067505 5.786132
v 0.077677 0.118185 6.157423
v 0.247250 -1.293895 5.850198
v 0.256895 -0.958897 5.909531
v 0.514442 -0.139145 6.161657
v 0.541554 -0.148923 6.163368
v 0.832709 0.053247 6.442086
v 0.997201 -1.346793 6.009579
v 1.102463 -1.324993 6.058045
v 1.262949 -0.119087 6.477092
v 1.286442 -0.873862 6.263886
v 1.312643 -1.081199 6.244900
v 1.285693 -1.345850 6.143216
v 1.290571 -0.634489 6.102799
v 1.558635 -1.383031 6.256334
v 1.807231 -1.463500 6.428278
v 6.498900 -1.701278 14.016076
v -1.916190 0.081573 0.539921
v -1.916190 0.081573 0.539921
v -1.916190 0.081573 0.539921
v -1.916190 0.081573 0.539921
v -1.916190 0.081573 0.539921
v -1.916190 0.081573 0.539921
v -1.916190 0.081573 0.539921
v -1.916190 0.081573 0.539921
v -1.916190 0.081573 0.539921
v -1.916190 0.081573 0.539921
v -1.916190 0.081573 0.539921
v -1.916190 0.081573 0.539921
v -1.916190 0.081573 0.539921
v -1.916190 0.081573 0.539921
v -1.916190 0.081573 0.539921
v -1.916190 0.081573 0.539921
v -1.916190 0.081573 0.539921
v -1.916190 0.081573 0.539921
v -1.916190 0.081573 0.539921
v -1.916190 0.081573 0.539921
v -1.916190 0.081573 0.539921
v -1.916190 0.081573 0.539921
v -1.916190 0.081573 0.539921
v -1.916190 0.081573 0.539921
v -1.916190 0.081573 0.539921
v -1.916190 0.081573 0.539921
v -1.916190 0.081573 0.539921
v -1.916190 0.081573 0.539921
v -1.916190 0.081573 0.539921
v -1.916190 0.081573 0.539921
v -1.916190 0.081573 0.539921
v -1.916190 0.081573 0.539921
v -1.916190 0.081573 0.539921
v -1.916190 0.081573 0.539921
v -1.916190 0.081573 0.539921
v -1.916190 0.081573 0.539921
v -1.916190 0.081573 0.539921
v -1.916190 0.081573 0.539921
v -1.916190 0.081573 0.539921
v -1.916190 0.081573 0.539921
v -1.916190 0.081573 0.539921
v -1.916190 0.081573 0.539921
v -1.916190 0.081573 0.539921
v -1.916190 0.081573 0.539921
v -1.916190 0.081573 0.539921
v -1.916190 0.081573 0.539921
v -1.916190 0.081573 0.539921
v -1.916190 0.081573 0.539921
v -1.916190 0.081573 0.539921
v -1.916190 0.081573 0.539921
v -1.916190 0.081573 0.539921
v -1.916190 0.081573 0.539921
v -1.916190 0.081573 0.539921
v -1.916190 0.081573 0.539921
v -1.916190 0.081573 0.539921
v -1.916190 0.081573 0.539921
v -1.916190 0.081573 0.539921
v -1.916190 0.081573 0.539921
v -1.916190 0.081573 0.539921
v -1.916190 0.081573 0.539921
v -1.916190 0.081573 0.539921
v -1.916190 0.081573 0.539921
v -1.916190 0.081573 0.539921
v -1.916190 0.081573 0.539921
v -1.916190 0.081573 0.539921
v -1.916190 0.081573 0.539921
v -1.916190 0.081573 0.539921
v -1.916190 0.081573 0.539921
v -1.916190 0.081573 0.539921
v -1.916190 0.081573 0.539921
v -1.916190 0.081573 0.539921
v -1.916190 0.081573 0.539921
v -1.916190 0.081573 0.539921
v -1.916190 0.081573 0.539921
v -1.916190 0.081573 0.539921
v -1.916190 0.081573 0.539921
v -1.916190 0.081573 0.539921
v -1.916190 0.081573 0.539921
v -1.916190 0.081573 0.539921
v -1.916190 0.081573 0.539921
v -1.916190 0.081573 0.539921
v -1.916190 0.081573 0.539921
v -1.916190 0.081573 0.539921
v -1.916190 0.081573 0.539921
v -1.916190 0.081573 0.539921
v -1.916190 0.081573 0.539921
v -1.916190 0.081573 0.539921
v -1.916190 0.081573 0.539921
v -1.916190 0.081573 0.539921
v -1.916190 0.081573 0.539921
v -1.916190 0.081573 0.539921
v -1.916190 0.081573 0.539921
v -1.916190 0.081573 0.539921
v -1.916190 0.081573 0.539921
v -1.916190 0.081573 0.539921
v -1.916190 0.081573 0.539921
v -1.916190 0.081573 0.539921
v -1.916190 0.081573 0.539921
v -1.916190 0.081573 0.539921
v -1.916190 0.081573 0.539921
v -1.916190 0.081573 0.539921
v -1.916190 0.081573 0.539921
v -1.916190 0.081573 0.539921
v -1.916190 0.081573 0.539921
v -1.916190 0.081573 0.539921
v -1.916190 0.081573 0.539921
v -1.916190 0.081573 0.539921
v -1.916190 0.081573 0.539921
v -1.916190 0.081573 0.539921
v -1.916190 0.081573 0.539921
v -1.916190 0.081573 0.539921
v -1.916190 0.081573 0.539921
v -1.916190 0.081573 0.539921
v -1.916190 0.081573 0.539921
v -1.916190 0.081573 0.539921
v -1.916190 0.081573 0.539921
v -1.916190 0.081573 0.539921
v -1.916190 0.081573 0.539921
v -1.916190 0.081573 0.539921
v -1.916190 0.081573 0.539921
v -1.916190 0.081573 0.539921
v -1.916190 0.081573 0.539921
v -1.916190 0.081573 0.539921
v -1.916190 0.081573 0.539921
v -1.916190 0.081573 0.539921
v -1.916190 0.081573 0.539921
v -1.916190 0.081573 0.539921
v -1.916190 0.081573 0.539921
v -1.916190 0.081573 0.539921
v -1.916190 0.081573 0.539921
v -1.916190 0.081573 0.539921
v -1.916190 0.081573 0.539921
v -1.916190 0.081573 0.539921
v -1.916190 0.081573 0.539921
v -1.916190 0.081573 0.539921
v -1.916190 0.081573 0.539921
v -1.916190 0.081573 0.539921
v -1.916190 0.081573 0.539921
v -1.916190 0.081573 0.539921
v -1.916190 0.081573 0.539921
v -1.916190 0.081573 0.539921
v -1.916190 0.081573 0.539921
v -1.916190 0.081573 0.539921
v -1.916190 0.081573 0.539921
v -1.916190 0.081573 0.539921
v -1.916190 0.081573 0.539921
v -1.916190 0.081573 0.539921
v -1.916190 0.081573 0.539921
v -1.916190 0.081573 0.539921
v -1.916190 0.081573 0.539921
v -1.916190 0.081573 0.539921
v -1.916190 0.081573 0.539921
v -1.916190 0.081573 0.539921
v -1.916190 0.081573 0.539921
v -1.916190 0.081573 0.539921
v -1.916190 0.081573 0.539921
v -1.916190 0.081573 0.539921
v -1.916190 0.081573 0.539921
v -1.916190 0.081573 0.539921
v -1.916190 0.081573 0.539921
v -1.916190 0.081573 0.539921
v -1.916190 0.081573 0.539921
v -1.916190 0.081573 0.539921
v -1.916190 0.081573 0.539921
v -1.916190 0.081573 0.539921
v -1.916190 0.081573 0.539921
v -1.916190 0.081573 0.539921
v -1.916190 0.081573 0.539921
v -1.916190 0.081573 0.539921
v -1.916190 0.081573 0.539921
v -1.916190 0.081573 0.539921
v -1.916190 0.081573 0.539921
v -1.916190 0.081573 0.539921
v -1.916190 0.081573 0.539921
v -1.916190 0.081573 0.539921
v -1.916190 0.081573 0.539921
v -1.916190 0.081573 0.539921
v -1.916190 0.081573 0.539921
v -1.916190 0.081573 0.539921
v -1.916190 0.081573 0.539921
v -1.916190 0.081573 0.539921
v -1.916190 0.081573 0.539921
v -1.916190 0.081573 0.539921
v -1.916190 0.081573 0.539921
v -1.916190 0.081573 0.539921
v -1.916190 0.081573 0.539921
v -1.916190 0.081573 0.539921
v -1.916190 0.081573 0.539921
v -1.916190 0.081573 0.539921
v -1.916190 0.081573 0.539921
v -1.916190 0.081573 0.539921
v -1.916190 0.081573 0.539921
v -1.916190 0.081573 0.539921
v -1.916190 0.081573 0.539921
v -1.916190 0.081573 0.539921
v -1.916190 0.081573 0.539921
v -1.916190 0.081573 0.539921
v -1.916190 0.081573 0.539921
v -1.916190 0.081573 0.539921
v -1.916190 0.081573 0.539921
v -1.916190 0.081573 0.539921
v -1.916190 0.081573 0.539921
v -1.916190 0.081573 0.539921
v -1.916190 0.081573 0.539921
v -1.916190 0.081573 0.539921
v -1.916190 0.081573 0.539921
v -1.916190 0.081573 0.539921
v -1.916190 0.081573 0.539921
v -1.916190 0.081573 0.539921
v -1.916190 0.081573 0.539921
v -1.916190 0.081573 0.539921
v -1.916190 0.081573 0.539921
v -1.916190 0.081573 0.539921
v -1.916190 0.081573 0.539921
v -1.916190 0.081573 0.539921
v -1.916190 0.081573 0.539921
v -1.916190 0.081573 0.539921
v -1.916190 0.081573 0.539921
v -1.916190 0.081573 0.539921
v -1.916190 0.081573 0.539921
v -1.916190 0.081573 0.539921
v -1.916190 0.081573 0.539921
v -1.916190 0.081573 0.539921
v -1.916190 0.081573 0.539921
v -1.916190 0.081573 0.539921
v -1.916190 0.081573 0.539921
v -1.916190 0.081573 0.539921
v -1.916190 0.081573 0.539921
v -1.916190 0.081573 0.539921
v -1.916190 0.081573 0.539921
v -1.916190 0.081573 0.539921
v -1.916190 0.081573 0.539921
v -1.916190 0.081573 0.539921
v -1.916190 0.081573 0.539921
v -1.916190 0.081573 0.539921
v -1.916190 0.081573 0.539921
v -1.916190 0.081573 0.539921
v -1.916190 0.081573 0.539921
v -1.916190 0.081573 0.539921
v -1.916190 0.081573 0.539921
v -1.916190 0.081573 0.539921
v -1.916190 0.081573 0.539921
v -1.916190 0.081573 0.539921
v -1.916190 0.081573 0.539921
v -1.916190 0.081573 0.539921
v -1.916190 0.081573 0.539921
v -1.916190 0.081573 0.539921
v -1.916190 0.081573 0.539921
v -1.916190 0.081573 0.539921
v -1.916190 0.081573 0.539921
v -1.916190 0.081573 0.539921
v -1.916190 0.081573 0.539921
v -1.916190 0.081573 0.539921
v -1.916190 0.081573 0.539921
v -1.916190 0.081573 0.539921
v -1.916190 0.081573 0.539921
v -1.916190 0.081573 0.539921
v -1.916190 0.081573 0.539921
v -1.916190 0.081573 0.539921
v -1.916190 0.081573 0.539921
v -1.916190 0.081573 0.539921
v -1.916190 0.081573 0.539921
v -1.916190 0.081573 0.539921
v -1.916190 0.081573 0.539921
v -1.916190 0.081573 0.539921
v -1.916190 0.081573 0.539921
v -1.916190 0.081573 0.539921
v -1.916190 0.081573 0.539921
v -1.916190 0.081573 0.539921
v -1.916190 0.081573 0.539921
v -1.916190 0.081573 0.539921
v -1.916190 0.081573 0.539921
v -1.916190 0.081573 0.539921
v -1.916190 0.081573 0.539921
v -1.916190 0.081573 0.539921
v -1.916190 0.081573 0.539921
v -1.916190 0.081573 0.539921
v -1.916190 0.081573 0.539921
v -1.916190 0.081573 0.539921
v -1.916190 0.081573 0.539921
v -1.916190 0.081573 0.539921
v -1.916190 0.081573 0.539921
v -1.916190 0.081573 0.539921
v -1.916190 0.081573 0.539921
v -1.916190 0.081573 0.539921
v -1.916190 0.081573 0.539921
v -1.916190 0.081573 0.539921
v -1.916190 0.081573 0.539921
v -1.916190 0.081573 0.539921
v -1.916190 0.081573 0.539921
v -1.916190 0.081573 0.539921
v -1.916190 0.081573 0.539921
v -1.916190 0.081573 0.539921
v -1.916190 0.081573 0.539921
v -1.916190 0.081573 0.539921
v -1.916190 0.081573 0.539921
v -1.916190 0.081573 0.539921
v -1.916190 0.081573 0.539921
v -1.916190 0.081573 0.539921
v -1.916190 0.081573 0.539921
v -1.916190 0.081573 0.539921
v -1.916190 0.081573 0.539921
v -1.916190 0.081573 0.539921
v -1.916190 0.081573 0.539921
v -1.916190 0.081573 0.539921
v -1.916190 0.081573 0.539921
v -1.916190 0.081573 0.539921
v -1.916190 0.081573 0.539921
v -1.916190 0.081573 0.539921
v -1.916190 0.081573 0.539921
v -1.916190 0.081573 0.539921
v -1.916190 0.081573 0.539921
v -1.916190 0.081573 0.539921
v -1.916190 0.081573 0.539921
v -1.916190 0.081573 0.539921
v -1.916190 0.081573 0.539921
v -1.916190 0.081573 0.539921
v -1.916190 0.081573 0.539921
v -1.916190 0.081573 0.539921
v -1.916190 0.081573 0.539921
v -1.916190 0.081573 0.539921
v -1.916190 0.081573 0.539921
v -1.916190 0.081573 0.539921
v -1.916190 0.081573 0.539921
v -1.916190 0.081573 0.539921
v -1.916190 0.081573 0.539921
v -1.916190 0.081573 0.539921
v -1.916190 0.081573 0.539921
v -1.916190 0.081573 0.539921
v -1.916190 0.081573 0.539921
v -1.916190 0.081573 0.539921
v -1.916190 0.081573 0.539921
v -1.916190 0.081573 0.539921
v -1.916190 0.081573 0.539921
v -1.916190 0.081573 0.539921
v -1.916190 0.081573 0.539921
v -1.916190 0.081573 0.539921
v -1.916190 0.081573 0.539921
v -1.916190 0.081573 0.539921
v -1.916190 0.081573 0.539921
v -1.916190 0.081573 0.539921
v -1.916190 0.081573 0.539921
v -1.916190 0.081573 0.539921
v -1.916190 0.081573 0.539921
v -1.916190 0.081573 0.539921
v -1.916190 0.081573 0.539921
v -1.916190 0.081573 0.539921
v -1.916190 0.081573 0.539921
v -1.916190 0.081573 0.539921
v -1.916190 0.081573 0.539921
v -1.916190 0.081573 0.539921
v -1.916190 0.081573 0.539921
v -1.916190 0.081573 0.539921
v -1.916190 0.081573 0.539921
v -1.916190 0.081573 0.539921
v -1.916190 0.081573 0.539921
v -1.916190 0.081573 0.539921
v -1.916190 0.081573 0.539921
v -1.916190 0.081573 0.539921
v -1.916190 0.081573 0.539921
v -1.916190 0.081573 0.539921
v -1.916190 0.081573 0.539921
v -1.916190 0.081573 0.539921
v -1.916190 0.081573 0.539921
v -1.916190 0.081573 0.539921
v -1.916190 0.081573 0.539921
v -1.916190 0.081573 0.539921
v -1.916190 0.081573 0.539921
v -1.916190 0.081573 0.539921
v -1.916190 0.081573 0.539921
v -1.916190 0.081573 0.539921
v -1.916190 0.081573 0.539921
v -1.916190 0.081573 0.539921
v -1.916190 0.081573 0.539921
v -1.916190 0.081573 0.539921
v -1.916190 0.081573 0.539921
v -1.916190 0.081573 0.539921
v -1.916190 0.081573 0.539921
v -1.916190 0.081573 0.539921
v -1.916190 0.081573 0.539921
v -1.916190 0.081573 0.539921
v -1.916190 0.081573 0.539921
v -1.916190 0.081573 0.539921
v -1.916190 0.081573 0.539921
v -1.916190 0.081573 0.539921
v -1.916190 0.081573 0.539921
v 5.550270 2.372357 -4.047741
v 4.343089 2.719831 -4.896784
v 5.193233 2.612783 -3.756211
v 4.842075 2.640122 -3.573934
v 3.509131 2.661328 -3.868229
v 4.143167 1.840445 -3.152190
v 4.216994 2.258540 -2.956290
v 4.216994 2.258540 -2.956290
v 4.246269 1.946657 -3.035630
v 4.092988 1.750873 -3.196376
v 4.204434 1.962887 -3.046600
v 4.136343 1.872659 -3.057852
v 4.086908 1.718376 -3.127997
v 4.098562 1.800626 -3.079834
v 4.046310 1.784035 -3.084793
v 3.930380 1.875084 -2.878366
v -0.896771 3.494407 -3.343297
v 8.633204 -0.840630 -0.973072
v 8.656081 -0.834469 -0.953624
v 8.570401 -0.835556 -1.038199
v 8.581960 -0.772102 -1.027356
v 8.464089 -0.747734 -1.125849
v 8.275154 -0.719704 -1.259538
v 8.274538 -0.728918 -1.264284
v 8.274538 -0.728918 -1.264284
v 8.276956 -0.724308 -1.260992
v 8.280081 -0.725713 -1.260289
v 8.307456 -0.706987 -1.236014
v 8.306094 -0.744060 -1.257714
v 8.309068 -0.697061 -1.234356
v 7.979984 -0.619765 -1.401911
v 7.950073 -0.604724 -1.410206
v 7.884775 -0.583605 -1.426535
v 7.801316 -0.564932 -1.449628
v 14.740586 -6.498872 3.178518
v 14.740586 -6.498872 3.178518
v 15.209526 -6.552409 3.330633
v 15.209526 -6.552409 3.330633
v 14.119426 -5.895599 2.220133
v 10.134531 -1.390278 -0.813262
v 10.132392 -1.389279 -0.815147
v -5.649797 3.310937 -11.733890
v -5.580538 3.712906 -10.880682
v 14.409281 -5.459648 0.531487
v -5.610596 4.479650 -9.865017
v -6.172392 3.461281 -10.271675
v 18.987661 -6.843098 1.453197
v -7.260255 2.812013 -9.104578
v -6.925429 3.291481 -8.597179
v -7.398334 2.900327 -8.555828
v -6.057652 3.326065 -7.604208
v 16.516647 -5.075874 -0.490237
v -6.570219 3.321447 -7.412091
v -7.546044 2.730705 -7.983094
v 16.590147 -5.230182 -0.666101
v 16.590147 -5.230182 -0.666101
v 16.809143 -4.554820 -0.307092
v 16.955561 -4.427272 -0.216662
v 16.727650 -4.799189 -0.494004
v 16.855085 -4.629213 -0.468773
v -8.295661 2.014229 -8.146601
v -6.125886 3.325360 -6.654812
v -5.578035 3.447681 -6.284146
v -8.585952 2.495584 -7.838795
v -8.818707 2.193272 -7.973499
v -6.860025 2.704686 -5.787554
v -8.779634 3.031017 -5.878788
v -9.320748 2.565631 -6.048882
v -8.310035 3.073382 -5.205549
v -8.963907 2.776469 -5.527884
v 15.598386 -7.325334 3.928341
v 16.063543 -7.322586 4.043427
v 15.000807 -6.739524 2.922395
v 11.350417 -2.255447 -0.344587
v -9.185275 4.775862 -13.088352
v 15.166803 -6.105996 0.885195
v -9.873976 4.483669 -12.303810
v -9.832932 4.849153 -11.317281
v -10.839515 3.580989 -10.665336
v -11.117102 3.396844 -9.738181
v 17.728268 -5.001020 -0.096749
v -11.576957 2.527001 -9.302479
v -12.084961 3.130338 -8.992598
v -12.341711 2.766699 -9.144823
v -9.855179 3.374979 -6.471998
v -12.519516 3.142323 -6.737477
v -11.215961 3.698865 -5.726237
v -11.975818 3.363315 -6.101080
v -13.741886 9.567554 -18.484692
v 16.867691 -8.404461 4.635962
v 16.837543 -8.586178 4.466277
v -14.155421 9.401686 -17.818394
v -13.124838 7.684651 -17.109898
v -13.124838 7.684651 -17.109898
v 17.297523 -8.309444 4.710393
v 17.297523 -8.309444 4.710393
v -42.427685 10.964350 -4.805515
v -15.082545 6.770267 -18.503063
v -32.779949 9.336844 -4.135435
v 17.099936 -6.930264 4.518719
v 16.758236 -7.371933 4.078173
v -20.575470 5.791579 -4.430517
v 16.856365 -6.105616 4.316437
v 16.400005 -7.891514 3.577414
v 16.716553 -7.014874 3.974513
v 16.716553 -7.014874 3.974513
v -14.235852 6.400189 -16.879875
v 15.653829 -4.512049 3.190854
v -15.542830 8.096451 -16.028118
v -14.842381 9.440587 -15.235986
v -15.302437 6.099467 -15.970077
v -13.689581 6.550886 -14.691266
v 14.949768 -5.532043 2.165963
v -13.730637 8.158992 -14.093330
v -13.536891 7.075669 -13.621385
v -15.233481 6.570656 -14.665334
v -13.244407 6.352427 -13.360023
v -15.625665 5.644033 -14.610662
v -15.625665 5.644033 -14.610662
v -16.670019 2.531210 -5.801838
v -16.242783 4.501954 -14.957768
v -16.628565 3.015745 -15.577021
v -15.247367 4.245901 -5.351221
v -14.531941 6.596075 -13.055853
v -14.196348 7.112988 -12.463540
v -16.290140 4.825711 -13.670321
v -14.542982 7.828644 -11.493749
v 16.415066 -7.022968 1.113832
v -13.420209 5.377023 -10.872135
v -14.061411 5.362782 -10.524770
v -14.061411 5.362782 -10.524770
v -16.260260 4.612507 -11.696873
v 19.768299 -5.383089 -0.192503
v -14.114356 5.539180 -9.659517
v 19.724119 -5.470316 -0.220798
v -19.070473 3.461298 -7.217088
v 21.845627 -8.760877 2.292244
v -12.711054 5.529141 -8.891876
v -17.295147 4.144133 -11.241420
v -17.742525 3.697544 -11.486175
v -16.423403 7.015616 -9.313820
v -11.900727 4.863564 -8.001018
v -11.900727 4.863564 -8.001018
v -13.507124 4.104269 -8.075519
v -15.636279 4.660027 -8.443392
v -17.627502 3.942662 -9.038094
v -16.573658 3.398477 -8.639263
v -18.213722 5.124679 -8.440297
v -17.590427 4.099731 -8.308695
v -16.768034 2.785769 -8.509960
v -18.176369 1.812537 -9.142573
v -15.561176 4.704235 -6.936199
v -17.732378 3.610080 -8.143955
v -16.632549 4.322105 -7.433320
v 19.284254 -5.681746 -0.036672
v 19.443092 -5.510755 0.073925
v 19.138163 -5.969152 -0.281219
v -17.547970 3.790806 -7.244709
v -16.558563 3.346714 -11.589639
v 17.169497 -7.354414 4.720727
v -32.855797 9.733168 -5.174339
v -16.346661 4.720305 -13.191874
v -16.215048 4.943441 -14.686324
v -17.258657 2.477201 -12.518755
v -17.456345 2.129313 -12.710915
v -25.020964 22.664753 -28.986040
v 16.674944 -8.210887 4.652534
v -16.218115 3.730810 -15.065102
v 17.229036 -8.259396 4.666668
v -36.941410 9.699524 -4.408909
v -31.841249 9.076053 -4.072970
v 16.896370 -7.102140 4.245518
v 16.387842 -7.858238 3.575025
v 16.749134 -7.043629 3.995735
v 16.749134 -7.043629 3.995735
v -11.617564 8.588772 -13.494342
v 15.710025 -4.542802 3.224328
v -13.390276 6.337334 -15.070009
v -13.008296 5.481139 -14.537009
v -12.266288 6.099417 -13.816096
v -11.401064 8.006692 -12.343652
v -13.751015 5.168035 -13.562042
v -13.892909 5.581211 -13.232018
v -14.189539 4.081923 -13.809249
v -21.584187 4.935863 -18.483561
v -14.185946 3.751749 -13.868956
v -14.876539 4.518830 -12.956945
v -14.991378 4.644308 -12.095786
v -12.828987 5.201602 -10.609813
v -13.183790 5.139476 -10.153054
v -13.183790 5.139476 -10.153054
v -15.108142 4.374735 -11.201626
v -16.379183 4.435278 -5.847020
v -13.232290 5.303448 -9.324832
v 20.481125 -5.764098 -0.145633
v -17.899910 3.295203 -6.959767
v 21.984413 -8.816366 2.334924
v -12.572813 5.492335 -8.840881
v 22.326277 -8.734533 2.301888
v -15.948804 3.903768 -10.713053
v -16.195793 3.462117 -10.872907
v -13.071768 3.864203 -8.533306
v -15.535293 3.237015 -8.325071
v -16.144047 4.676104 -7.868925
v -15.960550 2.180370 -8.823157
v -16.584953 3.924491 -8.028543
v -16.089972 2.703537 -8.312463
v -17.279060 1.730856 -8.883698
v -16.016562 4.223797 -7.272925
v 20.033289 -6.001645 0.051922
v -16.773224 3.663810 -7.061816
v -15.235888 3.140854 -11.038051
v -14.726185 4.379527 -12.404990
v -15.664083 1.952765 -11.914849
v -13.822525 4.800370 -13.358754
v -14.960447 0.759200 -0.928626
v -26.732113 4.683748 0.428195
v -15.068629 1.717825 -0.579412
v -42.280590 9.224418 1.775836
v 16.648565 -7.961302 5.355657
v -15.367003 1.114782 -1.361321
v -9.862652 8.715488 -12.625049
v -15.367003 1.114782 -1.361321
v -38.502258 7.652839 0.254537
v -10.066859 7.869973 -12.027238
v -9.664620 6.914478 -11.913021
v 16.697803 -8.325935 4.668624
v -10.919611 6.363301 -12.929546
v -15.372512 1.916164 -1.127930
v -40.884377 9.434089 0.186583
v -9.929645 8.382271 -11.626554
v -49.183712 12.105817 0.742385
v -11.062483 5.701085 -12.947096
v -10.900503 4.854986 -12.999579
v -15.554805 1.247727 -1.726822
v 16.759918 -8.298363 4.575768
v -9.427528 6.749228 -11.491080
v 17.026775 -8.444462 4.720586
v -9.610790 6.499963 -11.463619
v 16.808945 -8.106044 4.499474
v -40.829506 8.866535 -0.328081
v -34.678886 6.636116 -1.457565
v -21.493471 3.446732 -1.641342
v 17.216331 -8.238840 4.664107
v -15.259731 1.386753 -2.166385
v -16.832510 -0.007542 -3.636278
v -16.048676 1.272160 -3.019746
v 17.385817 -8.404867 4.533352
v -10.441357 7.085667 -11.354396
v -11.228718 7.734852 -11.740781
v -11.228718 7.734852 -11.740781
v 17.232630 -8.306122 4.388466
v -14.918706 2.332557 -2.496994
v -16.399641 1.949963 -3.136473
v -10.915219 5.622755 -11.925053
v -9.751027 4.908253 -11.267247
v 17.075415 -7.507199 4.411453
v -16.150518 2.638372 -3.125090
v -16.745949 1.880269 -3.601000
v -16.491924 3.119862 -3.016147
v -16.622250 2.983001 -3.223875
v -16.622250 2.983001 -3.223875
v -34.752224 9.226415 -4.153163
v -15.211487 -0.451374 -5.014986
v -12.109758 4.718362 -12.478130
v -16.567926 3.105254 -3.648668
v -32.338173 9.221004 -4.114967
v -32.338173 9.221004 -4.114967
v -16.252054 3.968334 -3.298915
v 16.357351 -7.814753 3.564718
v 20.595280 -5.960096 0.149903
v -13.103280 6.705144 -11.867789
v 20.570879 -6.226397 0.027019
v -17.050970 3.805626 -4.625685
v -28.622116 8.140242 -5.632138
v -13.460408 5.289400 -11.975372
v -26.183298 7.285916 -5.962555
v -13.606292 4.219215 -12.192815
v -15.463017 2.602073 -5.670794
v 15.768921 -4.571479 3.243824
v -16.902941 3.138285 -6.668774
v -25.693636 8.480351 -7.479752
v -16.174368 3.561414 -6.875734
v 14.510235 -1.056291 1.629026
v -16.763239 5.625889 -6.514289
v -22.845991 8.258110 -7.844057
v -12.511546 5.113600 -10.431419
v -15.320541 4.086547 -7.049266
v -15.484035 4.639499 -6.933052
v -15.484035 4.639499 -6.933052
v -16.249847 1.607632 -8.494111
v -13.823293 4.022126 -11.075984
v 21.781807 -8.542888 1.860620
v -12.105353 6.422174 -9.222193
v -12.622206 5.829614 -9.623425
v -12.515790 4.970728 -9.811417
v -12.515790 4.970728 -9.811417
v -15.382263 2.599722 -8.050936
v -13.369590 5.069582 -6.460093
v 17.577085 -6.097596 1.362122
v -14.206881 4.185109 -10.736310
v -14.796920 3.123408 -8.042523
v -25.493755 9.805979 -9.913351
v -15.634221 3.596028 -8.363432
v 21.962536 -8.802231 2.327141
v -15.075920 3.491880 -9.457932
v -15.075920 3.491880 -9.457932
v -13.229817 6.059020 -8.153946
v -14.789019 3.224107 -10.203195
v -11.559765 6.076299 -8.346764
v -12.520689 5.104994 -8.988315
v -14.790931 3.680688 -10.161141
v -12.418700 5.445056 -8.770077
v -12.360697 6.221045 -8.401603
v -8.483346 11.231796 -12.192111
v -15.654799 1.280135 -1.141413
v -15.384502 0.893843 -1.331808
v -13.979780 1.755410 -11.014707
v -11.834475 4.232446 -7.657446
v -37.617771 9.277900 -2.016886
v -37.617771 9.277900 -2.016886
v -15.799118 1.585415 -2.892359
v -15.850378 3.795697 -7.769235
v -16.224113 2.737462 -2.882831
v -35.849789 8.999678 -4.010093
v 17.941257 -7.296599 0.229772
v -13.325805 4.062204 -11.593128
v -15.285100 0.892570 -4.402887
v -15.285100 0.892570 -4.402887
v -35.335472 10.525161 -4.030450
v -26.739109 8.291828 -6.522528
v -23.077520 4.794981 -19.664028
v -12.461579 3.399413 -12.726258
v -12.363026 4.730437 -12.269333
v -32.652039 9.656713 -5.165108
v -14.138665 2.958180 -10.481177
v -12.500538 3.714461 -12.694915
v -15.348164 2.009618 -4.276065
v 16.819561 -7.084471 4.024088
v 16.819561 -7.084471 4.024088
v -15.218467 3.545320 -9.010392
v -9.791247 8.588450 -11.471725
v -15.438977 1.043608 -0.446669
v -14.044477 2.086457 -10.963684
v 17.077707 -7.031327 4.299525
v 17.077707 -7.031327 4.299525
v -13.479031 4.094965 -11.297338
v -14.983158 4.438815 -7.453877
v -13.890215 1.660141 -10.759983
v -13.757569 2.689296 -10.645671
v -4.895258 0.254888 -0.425950
v -5.071251 0.079462 -0.548984
v -4.972932 0.189676 -0.559385
v -4.972932 0.189676 -0.559385
v 11.049998 -2.665752 0.184778
v 15.734776 -4.739683 2.199841
v -6.240212 0.365414 -1.586855
v -37.143639 9.275662 -4.153843
v -5.964281 1.325737 -1.858746
v -30.678782 8.201571 -3.733102
v 9.723548 -2.595608 0.815087
v -4.251920 -0.019484 0.254007
v -4.556181 -1.726968 5.381507
v 11.326447 -3.839099 1.562808
v -1.220575 -1.734501 3.530392
v -6.183189 -1.011773 5.041797
v -6.247588 -1.010406 5.055127
v -6.247588 -1.010406 5.055127
v -18.069473 5.884217 -1.130627
v -6.764190 -0.876029 4.667503
v -6.467840 -0.992512 4.431695
v -14.403258 2.890003 -0.219857
v -17.843246 4.041795 0.494304
v 11.771963 -2.209387 0.168840
v -7.106160 -0.518906 3.527752
v -22.970528 5.217211 1.036322
v -7.056981 -0.283607 3.356519
v -7.826179 0.091848 3.448122
v 11.458405 -3.087373 0.009659
v -2.474503 -0.492076 1.313463
v -2.791790 -0.644167 1.338425
v -2.359180 -0.479799 1.414282
v -7.842351 0.474794 2.805613
v -2.705368 -0.601255 1.559675
v -2.457009 -0.974793 1.723506
v -2.498042 -0.576150 1.261524
v -19.984825 2.625654 5.648418
v -19.984825 2.625654 5.648418
v -31.312296 1.601902 19.501045
v -2.014727 -1.004916 2.626127
v -6.836944 -0.693258 3.638347
v 11.290163 -3.273145 1.733585
v -7.065947 -0.469616 3.905986
v -7.065947 -0.469616 3.905986
v -7.061905 -0.933206 3.955973
v -2.358497 -0.922024 2.053218
v -6.399534 -2.004887 4.984896
v -18.027418 -0.761634 8.463378
v -18.175419 -0.758329 8.494686
v -18.175419 -0.758329 8.494686
v -18.090149 -0.746514 7.179807
v -18.563408 -0.452425 7.254757
v -18.500467 0.200981 6.072012
v -18.500467 0.200981 6.072012
v 3.475425 0.113005 3.734535
v 9.793821 -2.728637 -0.271778
v 8.439643 -2.755087 2.483483
v 12.363675 -3.761676 1.591856
v 12.333516 -3.746478 1.534377
v -23.119974 -1.205381 6.623455
v -22.566805 -2.024329 7.406927
v 11.427541 -2.430981 0.766839
v -22.224892 -5.804003 8.010413
v -21.624363 -5.258127 8.114229
v -21.757553 -5.617234 8.784227
v -18.671566 -5.127292 8.971001
v -19.864704 -5.510398 9.490988
v -22.840374 -4.445705 12.293778
v 12.641589 -2.887093 -1.314058
v 5.279023 -1.559842 3.095796
v 12.414453 -2.847793 -1.146911
v 15.556423 -6.937814 2.205675
v 13.715449 -5.151299 1.196098
v -31.283293 3.407519 4.482923
v -33.727566 3.172707 5.862871
v -18.174053 -0.112410 3.973434
v -34.339764 3.246812 6.638238
v -32.387104 1.585186 6.185221
v -33.475929 1.781236 7.399796
v -15.472985 -1.296313 5.466795
v -15.354118 -1.939004 6.094513
v -35.069485 0.379857 11.672193
v -35.069485 0.379857 11.672193
v -13.512156 -4.418351 7.570149
v -34.962830 -2.038470 19.433041
v 9.886751 -1.850096 1.355567
v -35.477196 -1.994719 21.279127
v -36.336868 -3.419766 23.698046
v 28.852949 -11.528613 2.295601
v 28.852949 -11.528613 2.295601
v -45.820435 15.812112 4.517162
v -43.639610 12.283244 4.746544
v -41.083084 12.955221 5.163819
v -26.813734 4.134068 3.658056
v -11.492985 -0.256629 3.688476
v -17.934755 1.462652 4.312470
v -36.892372 6.758599 6.649947
v -18.194172 0.548201 4.629210
v -20.756578 2.052397 5.255738
v -19.086521 1.248592 5.189235
v -36.414406 6.214736 7.576132
v -18.643940 0.302803 5.424569
v -33.006481 4.625970 7.988351
v -33.006481 4.625970 7.988351
v 8.718577 -2.326602 2.898690
v -35.838017 5.867856 8.990869
v 20.472826 -7.853833 -0.071493
v -31.252855 3.541086 8.097818
v -19.214172 0.392632 6.197788
v 17.376904 -5.467765 0.850302
v -10.925664 -1.438128 5.173136
v 15.683798 -6.175299 0.430253
v 16.325476 -5.067902 0.643791
v -19.197546 -0.288912 7.402239
v -11.050049 -1.950895 5.695984
v 16.132439 -4.986678 0.514247
v -11.203319 -2.255265 5.885764
v -11.152369 -4.138966 5.212173
v 16.428082 -4.424837 0.487666
v -11.276227 -2.489374 5.858424
v -10.912476 -4.332857 5.245634
v 15.723002 -6.060032 -0.188218
v -12.104177 -2.044995 6.583771
v -19.251307 -0.573486 8.779167
v -19.251307 -0.573486 8.779167
v -10.481677 -3.890927 6.676564
v -10.093096 -2.640787 7.137705
v -10.173997 -4.026165 6.990890
v -10.970826 -3.205873 8.819895
v 14.720067 -2.895972 -0.329951
v -10.947790 -3.228087 9.119579
v -10.947790 -3.228087 9.119579
v -21.730352 -6.580220 11.408631
v -11.049546 -3.424071 9.417967
v -19.361618 -2.088909 13.677009
v -18.820160 -2.056265 14.484885
v -18.630257 -1.944199 14.668361
v -18.381218 -2.297625 15.312029
v -18.381218 -2.297625 15.312029
v 14.055059 -3.758716 -2.002685
v -9.959755 -2.105870 13.152707
v -9.438074 -2.688387 12.905415
v -10.413980 -4.641220 13.650818
v -11.128162 -3.201107 16.221136
v -11.700537 -5.138365 15.841343
v -11.401306 -4.383454 16.472794
v -11.870667 -5.224558 16.939539
v -15.107765 -2.972418 21.545309
v -10.938488 -4.187344 17.452984
v -2.083943 0.460410 7.044946
v -1.886434 0.415636 7.265667
v -3.095840 0.077912 7.621260
v 0.098205 -0.954777 8.643901
v -10.188774 7.409865 21.118835
v 5.212052 -2.471417 5.136151
v 1.906619 0.020565 9.296225
v 5.230146 -2.255242 5.302121
v 5.246850 -2.515403 5.214862
v 5.246850 -2.515403 5.214862
v 5.250090 -2.505243 5.240954
v -1.797370 1.548634 5.545806
v -7.486734 0.155165 5.436063
v -1.776304 1.485741 5.741999
v -2.871787 0.148849 6.064219
v -2.927208 0.473806 6.281815
v -1.816320 -0.485752 6.157519
v -0.535460 0.030155 6.421152
v -0.514985 -0.753921 6.289571
v -0.510773 -0.513091 6.396557
v -0.536074 -0.177271 6.503813
v -0.380089 -1.082902 6.371006
v -0.402530 0.253615 6.659078
v -0.462494 0.979537 6.848557
v -0.388035 -0.051025 6.655146
v -0.255824 1.037266 6.969916
v -0.221291 -1.082385 6.549531
v -0.412049 -0.021964 6.796081
v -0.405779 -0.473546 6.771032
v -0.445631 -0.021116 6.892522
v -0.367444 0.028141 6.898864
v -0.387930 -0.554928 6.909385
v -0.387930 -0.554928 6.909385
v -0.348034 0.384269 7.186007
v -0.476152 -0.736876 6.979778
v -49.129471 -7.265195 18.929232
v 0.646483 1.380169 7.603202
v 0.172222 1.690337 7.885815
v -0.827961 0.549667 8.166129
v -0.827961 0.549667 8.166129
v -0.474507 -1.454046 8.007127
v -0.614898 -1.498209 8.110687
v -44.793106 -3.654014 27.150429
v -45.599510 -5.562309 27.584602
v -45.313114 -7.716356 27.213272
v -1.000830 -1.335926 9.052223
v -0.740454 -0.690702 9.180630
v -0.725014 0.090646 9.460637
v -0.740485 -0.155605 9.440055
v -0.947784 -1.761598 9.066150
v -0.689455 -0.445288 9.374377
v -0.728684 0.209209 9.631001
v -0.784014 -0.320456 9.500081
v -0.803309 0.230871 9.686066
v -0.803309 0.230871 9.686066
v -0.741916 0.117169 9.621953
v -0.746694 -0.133855 9.559988
v -0.748385 0.063868 9.634664
v -0.599807 -0.683744 9.335935
v -0.595245 -0.566034 9.370751
v -0.754052 -1.363173 9.229563
v -44.742802 -7.260924 29.485191
v -0.547157 -0.860705 9.294577
v -0.715475 -0.282228 9.785111
v 0.082242 -0.796582 9.619654
v -8.208797 -0.669342 15.419847
v -8.902800 -2.170482 15.400778
v -7.680294 -0.805925 15.263358
v 0.406736 0.702634 10.532339
v -7.375103 -0.629854 15.181872
v -40.089584 -9.434841 34.173038
v -40.089584 -9.434841 34.173038
v -6.836927 -0.633718 15.109159
v -2.270071 -0.005688 12.320387
v -1.603863 -0.199015 12.500950
v -1.234687 -0.074352 12.324937
v 1.430254 0.411226 10.572687
v 1.563808 -0.633910 6.371128
v 1.559255 -1.013751 6.396746
v 1.559255 -1.013751 6.396746
v 1.604586 -0.330556 6.595734
v -29.090738 -1.177173 20.585773
v -29.090738 -1.177173 20.585773
v -29.217533 -3.256390 20.492783
v -29.217533 -3.256390 20.492783
v -30.132238 -5.294249 20.651272
v -29.338125 -4.554578 20.610207
v 1.314827 -0.453001 8.418061
v 1.293925 -0.448111 8.438496
v -29.742519 -5.818492 22.400070
v -29.036814 -5.440012 22.903086
v -31.943836 -7.306818 25.872440
v -31.943836 -7.306818 25.872440
v -28.709051 -5.286709 25.511456
v -28.709051 -5.286709 25.511456
v -29.533573 -7.196249 26.619720
v -28.457714 -6.691622 26.594584
v -28.620409 -7.702009 27.087627
v -27.490484 -8.201043 30.113878
v 5.752628 -1.744100 4.248493
v -16.070227 -0.111481 7.103899
v -15.649108 0.282183 7.294073
v -15.158280 0.121020 7.898424
v 1.053929 -0.580359 5.380840
v 2.360113 -1.381995 5.355237
v 2.398758 -1.405807 5.354226
v 2.467190 -0.859991 5.457155
v 2.467190 -0.859991 5.457155
v 2.493420 -1.317388 5.376585
v 2.536094 -1.007482 5.445708
v 2.523970 -1.004437 5.452705
v 2.509671 -0.997067 5.490451
v -41.648979 -4.020635 17.532591
v 2.534480 -0.787399 5.534981
v 2.534480 -0.787399 5.534981
v 2.590121 -0.736971 5.581619
v 2.599221 -0.910869 5.702702
v -43.051613 -5.347264 20.080416
v -34.237644 -3.093867 17.715036
v 2.585273 -1.206907 5.731124
v 2.585273 -1.206907 5.731124
v 2.627929 -0.673746 5.882040
v 2.542429 -1.580995 5.840322
v 2.620333 -1.551126 5.965851
v 2.551963 -0.635311 6.344182
v 2.551963 -0.635311 6.344182
v -20.744871 -2.923316 16.389547
v -20.564165 -3.905888 16.344606
v -21.116602 -4.888967 17.828926
v -36.467640 -8.081500 25.730925
v -20.199364 -4.563449 18.002764
v -22.222216 -5.959975 20.135283
v -22.222216 -5.959975 20.135283
v 2.647691 -0.672923 6.986259
v -20.024918 -4.464002 20.008751
v -20.024918 -4.464002 20.008751
v -20.345587 -4.490012 20.212793
v -20.345587 -4.490012 20.212793
v 2.657283 -0.686713 7.056405
v 2.513380 -1.307845 6.961842
v 2.543391 -1.500582 6.969565
v 2.497737 -1.102682 7.135042
v 2.504123 -0.797001 7.227152
v 2.532794 -0.999442 7.159243
v -20.785049 -5.918376 20.935526
v -20.075565 -5.549666 20.988058
v -20.945793 -6.438868 21.870682
v 4.139228 -0.365733 6.465826
v -19.576143 -6.313996 23.006964
v -19.654270 -6.763611 23.912674
v -19.456896 -6.770715 25.785603
v -20.904221 -5.008219 28.456059
v -16.815050 -5.486503 27.529806
v -0.240383 0.853704 5.276776
v 0.882165 -0.258809 6.105619
v 0.941598 -0.413167 6.284627
v 1.060352 -1.245131 6.102718
v 0.935524 -0.417625 6.354858
v 0.911375 -0.828534 6.397612
v 0.953996 -0.085471 6.613995
v 0.672886 -1.721992 7.806988
v 0.821434 -0.048336 8.394168
v 0.610847 -0.498114 8.475777
v 0.597650 -0.639462 8.508361
v -17.058117 3.572264 8.565146
v -6.902229 1.176659 8.220010
v -6.279037 -0.595633 7.770873
v -6.565535 0.096550 7.990379
v -7.134414 2.064851 8.551023
v -7.134414 2.064851 8.551023
v -6.059611 0.705851 7.989161
v -7.070543 2.038180 8.618538
v -6.540234 1.435014 8.420070
v -6.544469 1.435599 8.421954
v -6.387460 2.008728 8.578863
v -6.040359 1.239073 8.375184
v -6.233113 1.942081 8.592202
v -5.286678 -0.209770 7.943840
v -5.033720 -0.281551 7.939037
v -5.033720 -0.281551 7.939037
v -4.744572 -0.721619 7.791593
v -4.549599 -0.333842 8.007086
v -4.167766 -0.070578 7.937035
v -4.486254 1.604706 8.397084
v -4.537520 0.246684 8.243361
v -4.197822 1.166922 8.284672
v -4.431204 1.021603 8.375667
v -4.270491 1.834585 8.562057
v -4.326022 1.355541 8.520095
v -3.878447 1.298295 8.494536
v -3.648325 1.372077 8.531242
v -2.466704 0.428340 7.833996
v -3.406022 1.248953 8.530059
v -2.422243 0.466964 8.018808
v -2.550627 -0.735212 7.932894
v -2.428529 0.411131 8.211788
v -2.560329 -0.036380 8.212365
v -2.367412 -0.574173 8.037681
v -2.269580 0.063997 8.173504
v -2.247905 0.562719 8.361852
v -2.247905 0.562719 8.361852
v 1.038907 2.058201 6.939296
v -2.183301 0.674779 8.420267
v -2.100874 0.058470 8.255028
v -2.083047 0.129761 8.262604
v -2.270745 1.234643 8.625607
v -1.901997 -0.933693 7.985884
v -2.099138 -0.795459 8.128880
v -2.309855 1.605839 8.773672
v -2.006258 1.517388 8.809365
v -2.122225 0.355740 8.680069
v -2.134799 0.302273 8.742819
v -2.107187 -0.559612 8.553188
v -2.115669 -0.355967 8.770321
v -2.103195 0.817695 9.150190
v -2.358541 0.987310 10.251644
v -2.107752 -1.354745 9.475348
v 1.381879 1.815141 8.021832
v -2.209579 -1.544424 10.188325
v -2.131470 -1.635588 10.484101
v -0.389270 4.125040 10.828242
v -2.508859 -1.545607 11.268683
v -2.435990 -0.541342 11.587102
v -2.435990 -0.541342 11.587102
v -2.198344 0.837216 11.867249
v -2.198344 0.837216 11.867249
v -2.473823 -0.088033 11.972394
v -2.359771 -0.421939 11.872578
v -2.065305 -0.514940 11.764962
v -2.315574 0.012800 12.330155
v -4.100680 0.202401 16.406206
v 1.460045 -2.053432 10.235594
v -4.795730 0.618026 6.231867
v 4.767692 -1.813157 3.463152
v 1.748439 -1.179906 5.792428
v 1.899852 -0.852159 5.901741
v 1.828558 -0.039728 6.152859
v 1.336594 -0.856194 9.075270
v 0.070664 -0.633421 11.467804
v 2.120348 -0.082121 4.192283
v 1.956462 -1.106150 4.443473
v 2.432821 -0.492958 4.680185
v 2.508079 -0.402763 4.719589
v 2.488375 -0.396565 4.740362
v 2.830773 -1.266899 4.466156
v 2.748276 -0.396518 4.733532
v 2.888252 -1.200719 4.514116
v 2.912696 -0.980531 4.565568
v 2.992551 -1.189543 4.518925
v 2.993017 -0.978398 4.586685
v 2.953305 -0.419830 4.749971
v 3.016883 -1.276561 4.553559
v 3.022545 -0.389885 4.756014
v 3.010652 -0.425713 4.808159
v 2.954321 -0.869445 4.868860
v 2.986454 -0.695020 4.924221
v 2.811201 -1.190555 5.890347
v 2.798805 -0.934997 6.023041
v 2.838012 -1.117805 5.963367
v 1.832432 -0.908382 8.169929
v 0.661117 -0.726177 10.359431
v 2.344631 -1.095722 4.992643
v 2.410033 -0.148896 5.342508
v 2.204395 -1.039438 6.665306
v 1.989076 -0.827090 7.630897
v 1.661199 -0.824051 8.431348
v 1.208781 -0.737693 9.595082
v -2.172385 0.120636 5.065213
v -24.722853 -2.892407 20.995525
v -39.089684 -7.604679 30.200064
v -0.670895 -0.759494 5.820368
v -0.616849 0.185531 5.934561
v -0.672766 0.167877 5.993897
v -37.854046 -8.008397 30.715990
v -37.854046 -8.008397 30.715990
v -39.940266 -8.371902 32.166782
v -0.728057 0.170168 6.063641
v -0.542397 0.203500 5.954321
v -0.387509 -1.198705 5.702594
v 0.500949 0.495017 5.422307
v -0.338009 -0.282738 5.951544
v -0.142534 0.142583 6.063749
v -37.650703 -8.242580 33.774597
v 0.203595 -1.024374 5.843843
v -38.233589 -8.992348 35.565620
v 0.454437 -1.044316 5.894697
v 0.429711 0.095448 6.132788
v 0.613678 -0.900441 5.897973
v 0.564926 -0.328438 6.071413
v 0.649502 -0.225519 6.043818
v 0.667687 -0.146773 6.110303
v 2.664656 0.704789 4.476296
v 1.008488 -0.113974 6.117315
v 1.046564 0.041630 6.253686
v 1.330330 -1.326669 5.950296
v -32.464508 -6.809906 40.516357
v 1.407263 -1.283448 5.962143
v 1.427190 -1.260560 5.988325
v 1.504554 -0.476858 6.130396
v 1.446595 -0.319061 6.258173
v -32.025547 -9.983826 42.032681
v 1.560430 0.089942 6.326441
v 1.572960 -0.841693 6.110154
v 1.570376 0.060504 6.320043
v 1.625433 -0.517186 6.194002
v 1.665693 -0.951151 6.090193
v 1.673141 -0.462791 6.221200
v 1.679329 -1.140521 6.068660
v 1.667762 0.017605 6.355272
v 1.667762 0.017605 6.355272
v -30.114958 -12.333302 40.850132
v 1.700844 -0.509308 6.214715
v 1.697082 -0.822312 6.149299
v 1.723219 -0.812036 6.172934
v 1.696195 -1.282943 6.144752
v 1.747410 -0.601187 6.294407
v 1.766168 0.019342 6.438274
v 1.702282 -1.053746 6.421349
v 1.851371 -1.406634 6.210409
v -23.502935 -12.632372 37.523445
v -20.808708 -8.253314 37.189167
v -23.942722 -9.137165 41.640305
v -23.942722 -9.137165 41.640305
v 1.803594 -0.250371 7.598464
v 1.587023 -1.152658 7.886391
v 1.587023 -1.152658 7.886391
v 1.846090 -0.303501 7.810382
v 1.780420 -0.418788 7.942994
v 1.602391 -1.387121 7.911358
v 1.602391 -1.387121 7.911358
v 1.629634 -1.043592 7.990357
v 1.730186 -1.270155 7.820666
v 1.695637 -1.082531 7.975635
v -15.813989 -12.076887 35.056770
v -15.813989 -12.076887 35.056770
v 1.566332 -0.819530 8.680374
v -14.357707 -11.555272 34.485195
v 3.633303 0.259413 6.108637
v 2.742806 -0.208735 8.298527
v -0.695537 -0.750194 5.836637
v -0.478047 -0.931449 5.832819
v -0.479256 -0.096177 6.014630
v 0.391550 0.532612 5.504775
v -0.269861 0.176922 6.164514
v 0.122958 -1.013062 5.909961
v 0.362996 -0.525365 6.064049
v 2.558596 0.741388 4.421839
v 1.361216 -1.282832 6.011576
v 1.328672 0.097548 6.385582
v 1.388610 -1.095313 6.089195
v 1.617562 -1.032649 6.120451
v 1.632815 -0.452481 6.270794
v 1.639228 -1.136893 6.116899
v 1.621441 0.031403 6.412422
v 1.621441 0.031403 6.412422
v 1.691773 -0.807169 6.211540
v 1.745114 0.093242 6.411372
v 1.661639 -1.285797 6.184456
v 1.732734 0.033004 6.482659
v -24.725084 -15.076124 43.295250
v 1.568474 -1.038234 8.093722
v 1.619037 -1.079088 8.105792
v 1.651982 -1.177341 8.055432
v -20.359880 -14.374449 42.215763
v -20.359880 -14.374449 42.215763
v -19.024277 -13.973262 42.234623
v -2.787727 -0.317692 6.243792
v -10.830787 0.249889 13.063328
v -0.741492 -0.773309 5.881004
v -0.910535 0.224744 6.214084
v -0.816012 0.273698 6.212263
v -0.524186 -1.196331 5.830951
v -0.463340 -1.003811 5.850307
v -0.521291 -0.947711 5.921470
v -0.420342 -0.487625 5.978056
v -0.447482 0.202034 6.263996
v 0.308297 0.559766 5.622280
v -0.305659 -0.337726 6.128925
v -0.370718 0.201188 6.301948
v -0.126646 0.228419 6.379221
v 0.302051 -1.087823 6.011278
v 0.251845 0.146164 6.347201
v 0.330891 -0.702692 6.142093
v 0.331230 -0.343767 6.253495
v 0.492203 -0.895980 6.043501
v 0.453411 -0.311336 6.207045
v 0.804045 0.114751 6.503551
v 1.073697 -0.773983 6.185825
v 1.332522 -1.289866 6.075175
v 1.364963 -1.299415 6.089483
v 1.445716 -0.483642 6.190478
v 1.396322 -1.295351 6.080645
v 1.594104 -0.149203 6.425938
v 1.595722 0.040944 6.482202
v 1.595722 0.040944 6.482202
v 1.596956 -0.946508 6.207931
v 1.608834 -0.449348 6.333793
v 1.615713 -1.140337 6.177901
v 1.663832 -0.247304 6.410867
v 1.648695 -1.112692 6.185466
v 1.673155 -0.808657 6.260716
v 1.713451 0.040770 6.538188
v 1.676083 -0.592791 6.422769
v 1.532962 -1.042730 8.214787
v 1.828322 -0.283699 7.863519
v 1.828322 -0.283699 7.863519
v 1.576808 -1.084290 8.255479
v 1.600204 -1.281371 8.123929
v -1.025285 0.248416 6.319145
v 0.172882 -1.088108 6.158393
v 0.151283 0.170547 6.466698
v -26.107454 -9.742172 44.723560
v 1.252328 -1.309903 6.261265
v 1.493864 -0.427374 6.533389
v 1.515140 -0.476010 6.540385
v 1.564551 -0.797349 6.452817
v 1.712436 0.119544 6.675013
v -21.710453 -15.320389 44.825523
v -21.710453 -15.320389 44.825523
v -20.870184 -15.233332 45.902264
v 1.437579 -1.042480 8.435349
v -0.421852 7.229226 28.742514
v -5.278634 -0.910169 9.900219
v -28.332495 -5.780932 33.918583
v -33.283543 -8.152710 39.150223
v -1.135846 -0.095610 6.045055
v -28.626228 -5.949653 35.860729
v -29.312439 -6.067699 36.636517
v -1.027524 -1.125598 6.164918
v -0.987174 -0.716372 6.199210
v -1.107345 0.263352 6.445918
v -30.561529 -11.273048 40.253998
v -0.977382 0.306820 6.405911
v -31.278576 -10.452644 42.286312
v -31.278576 -10.452644 42.286312
v -0.744807 -1.015782 6.196498
v -0.744173 -1.030850 6.225389
v -0.770096 -0.739094 6.291517
v -0.724804 -0.718114 6.280840
v -0.759271 0.282859 6.506478
v -0.675131 0.218234 6.451272
v -24.803356 -12.960221 38.743744
v -24.185904 -13.504669 39.643791
v -22.159779 -8.465768 38.677998
v -22.159779 -8.465768 38.677998
v -22.159779 -8.465768 38.677998
v 0.088545 -1.106116 6.341859
v -21.367302 -13.389153 38.270901
v 0.086378 0.185825 6.613208
v 0.120087 -0.698877 6.478344
v 0.272390 -0.907037 6.403699
v 0.233090 -0.288886 6.571687
v 0.312971 -1.120724 6.419434
v -18.238045 -13.221583 38.534264
v -18.238045 -13.221583 38.534264
v -17.465839 -13.123677 39.356823
v 1.121002 0.164548 6.870515
v 1.151125 -1.329946 6.480067
v 1.191206 -1.341424 6.481886
v 1.182517 -1.308859 6.523726
v 1.229897 -0.247167 6.828433
v 1.284751 0.150141 6.899206
v 1.419913 0.106642 6.955822
v 1.461012 -1.169628 6.576216
v 1.511531 -0.810189 6.697835
v 2.416913 0.901601 4.853335
v 1.524204 0.119702 7.087189
v 1.608388 -0.003946 7.638464
v 1.388859 -1.061084 8.706568
v 1.376895 -0.677385 8.885732
v 1.502557 -0.118823 8.847490
v 1.502557 -0.118823 8.847490
v 1.544800 -1.274136 8.705218
v 1.544800 -1.274136 8.705218
v 1.565438 -1.155947 8.741343
v -0.441683 -1.175814 5.735838
v -0.468586 -0.933830 5.860208
v -0.215351 -0.336429 6.010174
v 0.390526 0.527467 5.503346
v 1.429415 -1.278720 5.945627
v 1.499952 0.087430 6.363294
v -3.636266 -0.423973 7.919022
v -0.267951 -1.117532 5.319227
v -0.302022 -0.894198 5.457216
v -0.239103 -0.943548 5.368969
v -0.289136 -0.705939 5.496828
v -0.246344 -0.687297 5.482276
v 0.429596 0.100927 5.832891
v 1.251973 0.060639 5.855818
v 1.470975 -1.205839 5.458452
v 1.470975 -1.205839 5.458452
v 1.535199 0.050934 5.864241
v 1.734284 0.077395 5.883344
v 2.736119 -0.147933 7.610870
v -1.237375 -0.221097 7.164160
v -0.585117 -0.233670 7.195753
v 1.055266 -1.397410 6.981807
v 1.126141 0.229093 7.552622
v -1.522074 1.751461 5.706329
v 20.784050 3.631094 -30.352898
v -1.047601 1.773631 5.152141
v -2.547542 -1.674871 9.732388
v -2.788405 0.802706 10.658143
v -3.007406 1.006020 11.450147
v -3.038162 1.014409 11.539006
v -2.132185 -1.004240 9.964507
v -2.200537 0.227619 10.260481
v -2.103258 -0.899705 9.972717
v -2.159012 0.278709 10.458077
v -2.102800 -0.069258 10.329991
v -2.009241 0.691100 10.603780
v -1.868641 -0.456846 10.134735
v -0.611953 1.185093 9.081769
v -0.811709 0.588014 10.653261
v -0.648771 -1.467860 9.788827
v -0.684080 -0.920587 10.063895
v -0.446806 -1.159380 9.749294
v -0.446806 -1.159380 9.749294
v -0.374505 -0.389777 10.155449
v -0.038300 -1.863964 9.772860
v -0.031261 0.152357 10.471578
v 0.122998 0.021533 10.453827
v 0.171414 0.281096 10.531385
v -0.415052 -0.965368 17.990414
v 0.856286 -1.765743 9.713050
v 1.106942 0.077474 10.610227
v 1.151312 0.166461 10.575989
v 1.108193 -1.795323 9.811470
v 1.211040 0.503447 10.749840
v 1.119509 -1.613242 10.651150
v 1.235196 0.574310 10.835338
v 1.235196 0.574310 10.835338
v 1.213423 -0.322779 10.488831
v 1.205191 -1.134864 10.125393
v 1.205191 -1.134864 10.125393
v 1.201766 -1.375235 10.053969
v 1.356173 -0.108184 10.571977
v 1.512893 -0.481706 10.429482
v 1.504233 -0.930957 10.239353
v 1.529230 -1.004280 10.233089
v 1.579654 -1.875418 9.871064
v 1.801842 0.412022 11.413206
v 1.964891 -0.651937 10.690980
v 3.553236 0.250263 15.170251

vn 0.998044 -0.029891 -0.054911
vn 0.840533 -0.462576 -0.282008
vn 0.840533 -0.462576 -0.282008
vn 0.746693 0.345150 0.568614
vn 0.640552 0.490047 0.591225
vn 0.537019 0.308007 -0.785330
vn 0.640552 0.490047 0.591225
vn 0.466235 0.527887 0.709902
vn 0.466235 0.527887 0.709902
vn 0.668765 0.179457 -0.721491
vn -0.420221 -0.178561 0.889680
vn -0.329814 0.840034 0.430772
vn -0.335771 0.567357 0.751907
vn 0.036240 0.999130 -0.020649
vn 0.316597 -0.828799 -0.461365
vn -0.091689 -0.484493 0.869977
vn -0.218923 -0.422301 0.879622
vn 0.244332 0.934529 -0.258763
vn 0.312740 0.047163 0.948667
vn -0.380081 -0.415290 0.826483
vn -0.361119 0.027530 0.932113
vn -0.361119 0.027530 0.932113
vn 0.103648 -0.106665 0.988878
vn -0.257737 -0.546077 0.797102
vn 0.230004 -0.440076 0.868004
vn -0.035237 -0.841317 0.539393
vn 0.049182 -0.985162 0.164429
vn 0.635104 0.097804 -0.766210
vn -0.033033 -0.411232 0.910932
vn 0.094483 -0.344641 0.933968
vn 0.056553 0.667214 0.742716
vn 0.110944 -0.473014 0.874042
vn 0.507688 0.593513 -0.624496
vn 0.606282 -0.166385 0.777649
vn 0.025797 -0.954132 -0.298273
vn 0.499070 0.863323 0.074856
vn 0.253675 -0.788213 -0.560685
vn 0.129880 0.214341 0.968085
vn -0.172929 0.542331 0.822176
vn 0.640552 0.490047 0.591225
vn 0.466235 0.527887 0.709902
vn -0.091689 -0.484493 0.869977
vn 0.244332 0.934529 -0.258763
vn 0.041668 0.948018 0.315476
vn 0.587131 0.001782 -0.809490
vn -0.056469 -0.613308 0.787823
vn -0.518405 0.825354 0.223712
vn 0.766720 0.641974 0.003166
vn 0.265226 -0.675581 -0.687928
vn 0.242100 -0.628600 -0.739087
vn 0.904045 -0.097859 0.416085
vn 0.824437 -0.333407 0.457322
vn 0.212950 -0.183905 0.959600
vn 0.764032 -0.173997 0.621273
vn 0.764032 -0.173997 0.621273
vn 0.494099 0.095528 0.864141
vn 0.351028 -0.217718 0.910702
vn 0.605940 -0.496192 0.621796
vn -0.157755 -0.392653 0.906056
vn -0.097716 -0.530068 0.842306
vn -0.097200 -0.383762 0.918302
vn 0.487528 0.130913 -0.863237
vn 0.580063 0.311491 -0.752662
vn 0.580063 0.311491 -0.752662
vn 0.449722 0.289001 -0.845120
vn 0.449722 0.289001 -0.845120
vn 0.487528 0.130913 -0.863237
vn 0.389804 0.348742 -0.852310
vn 0.659702 0.737379 -0.145142
vn 0.387612 0.663452 0.639991
vn 0.122131 -0.888426 0.442474
vn 0.097107 0.974937 -0.200172
vn 0.487262 0.376322 -0.788009
vn -0.177708 0.687841 0.703771
vn 0.466235 0.527887 0.709902
vn 0.466235 0.527887 0.709902
vn 0.640552 0.490047 0.591225
vn 0.646144 0.615361 -0.451475
vn 0.673417 0.488931 -0.554487
vn 0.220877 0.103242 0.969822
vn 0.537019 0.308007 -0.785330
vn -0.023288 0.939639 0.341374
vn -0.211336 -0.740798 0.637617
vn 0.578726 -0.353652 -0.734851
vn 0.008538 0.675240 0.737549
vn 0.008538 0.675240 0.737549
vn -0.091689 -0.484493 0.869977
vn 0.244332 0.934529 -0.258763
vn -0.208289 -0.715337 0.667015
vn 0.600189 -0.619187 -0.506340
vn 0.405447 0.075588 0.910988
vn 0.405447 0.075588 0.910988
vn -0.035237 -0.841317 0.539393
vn -0.385525 -0.118658 0.915036
vn -0.013848 -0.992048 0.125095
vn 0.211816 0.016184 0.977176
vn -0.156724 0.102263 0.982334
vn 0.547452 -0.137509 0.825462
vn 0.012562 -0.985029 -0.171932
vn 0.028666 -0.437052 0.898980
vn 0.321976 -0.365999 -0.873141
vn 0.520899 0.297909 -0.799947
vn -0.569739 -0.607278 0.553725
vn 1.000000 0.000000 0.000000
vn 1.000000 0.000000 0.000000
vn 1.000000 0.000000 0.000000
vn 1.000000 0.000000 0.000000
vn 1.000000 0.000000 0.000000
vn 1.000000 0.000000 0.000000
vn 1.000000 0.000000 0.000000
vn 1.000000 0.000000 0.000000
vn 1.000000 0.000000 0.000000
vn 1.000000 0.000000 0.000000
vn 1.000000 0.000000 0.000000
vn 1.000000 0.000000 0.000000
vn 1.000000 0.000000 0.000000
vn 1.000000 0.000000 0.000000
vn 1.000000 0.000000 0.000000
vn 1.000000 0.000000 0.000000
vn 1.000000 0.000000 0.000000
vn 1.000000 0.000000 0.000000
vn 1.000000 0.000000 0.000000
vn 1.000000 0.000000 0.000000
vn 1.000000 0.000000 0.000000
vn 1.000000 0.000000 0.000000
vn 1.000000 0.000000 0.000000
vn 1.000000 0.000000 0.000000
vn 1.000000 0.000000 0.000000
vn 1.000000 0.000000 0.000000
vn 1.000000 0.000000 0.000000
vn 1.000000 0.000000 0.000000
vn 1.000000 0.000000 0.000000
vn 1.000000 0.000000 0.000000
vn 1.000000 0.000000 0.000000
vn 1.000000 0.000000 0.000000
vn 1.000000 0.000000 0.000000
vn 1.000000 0.000000 0.000000
vn 1.000000 0.000000 0.000000
vn 1.000000 0.000000 0.000000
vn 1.000000 0.000000 0.000000
vn 1.000000 0.000000 0.000000
vn 1.000000 0.000000 0.000000
vn 1.000000 0.000000 0.000000
vn 1.000000 0.000000 0.000000
vn 1.000000 0.000000 0.000000
vn 1.000000 0.000000 0.000000
vn 1.000000 0.000000 0.000000
vn 1.000000 0.000000 0.000000
vn 1.000000 0.000000 0.000000
vn 1.000000 0.000000 0.000000
vn 1.000000 0.000000 0.000000
vn 1.000000 0.000000 0.000000
vn 1.000000 0.000000 0.000000
vn 1.000000 0.000000 0.000000
vn 1.000000 0.000000 0.000000
vn 1.000000 0.000000 0.000000
vn 1.000000 0.000000 0.000000
vn 1.000000 0.000000 0.000000
vn 1.000000 0.000000 0.000000
vn 1.000000 0.000000 0.000000
vn 1.000000 0.000000 0.000000
vn 1.000000 0.000000 0.000000
vn 1.000000 0.000000 0.000000
vn 1.000000 0.000000 0.000000
vn 1.000000 0.000000 0.000000
vn 1.000000 0.000000 0.000000
vn 1.000000 0.000000 0.000000
vn 1.000000 0.000000 0.000000
vn 1.000000 0.000000 0.000000
vn 1.000000 0.000000 0.000000
vn 1.000000 0.000000 0.000000
vn 1.000000 0.000000 0.000000
vn 1.000000 0.000000 0.000000
vn 1.000000 0.000000 0.000000
vn 1.000000 0.000000 0.000000
vn 1.000000 0.000000 0.000000
vn 1.000000 0.000000 0.000000
vn 1.000000 0.000000 0.000000
vn 1.000000 0.000000 0.000000
vn 1.000000 0.000000 0.000000
vn 1.000000 0.000000 0.000000
vn 1.000000 0.000000 0.000000
vn 1.000000 0.000000 0.000000
vn 1.000000 0.000000 0.000000
vn 1.000000 0.000000 0.000000
vn 1.000000 0.000000 0.000000
vn 1.000000 0.000000 0.000000
vn 1.000000 0.000000 0.000000
vn 1.000000 0.000000 0.000000
vn 1.000000 0.000000 0.000000
vn 1.000000 0.000000 0.000000
vn 1.000000 0.000000 0.000000
vn 1.000000 0.000000 0.000000
vn 1.000000 0.000000 0.000000
vn 1.000000 0.000000 0.000000
vn 1.000000 0.000000 0.000000
vn 1.000000 0.000000 0.000000
vn 1.000000 0.000000 0.000000
vn 1.000000 0.000000 0.000000
vn 1.000000 0.000000 0.000000
vn 1.000000 0.000000 0.000000
vn 1.000000 0.000000 0.000000
vn 1.000000 0.000000 0.000000
vn 1.000000 0.000000 0.000000
vn 1.000000 0.000000 0.000000
vn 1.000000 0.000000 0.000000
vn 1.000000 0.000000 0.000000
vn 1.000000 0.000000 0.000000
vn 1.000000 0.000000 0.000000
vn 1.000000 0.000000 0.000000
vn 1.000000 0.000000 0.000000
vn 1.000000 0.000000 0.000000
vn 1.000000 0.000000 0.000000
vn 1.000000 0.000000 0.000000
vn 1.000000 0.000000 0.000000
vn 1.000000 0.000000 0.000000
vn 1.000000 0.000000 0.000000
vn 1.000000 0.000000 0.000000
vn 1.000000 0.000000 0.000000
vn 1.000000 0.000000 0.000000
vn 1.000000 0.000000 0.000000
vn 1.000000 0.000000 0.000000
vn 1.000000 0.000000 0.000000
vn 1.000000 0.000000 0.000000
vn 1.000000 0.000000 0.000000
vn 1.000000 0.000000 0.000000
vn 1.000000 0.000000 0.000000
vn 1.000000 0.000000 0.000000
vn 1.000000 0.000000 0.000000
vn 1.000000 0.000000 0.000000
vn 1.000000 0.000000 0.000000
vn 1.000000 0.000000 0.000000
vn 1.000000 0.000000 0.000000
vn 1.000000 0.000000 0.000000
vn 1.000000 0.000000 0.000000
vn 1.000000 0.000000 0.000000
vn 1.000000 0.000000 0.000000
vn 1.000000 0.000000 0.000000
vn 1.000000 0.000000 0.000000
vn 1.000000 0.000000 0.000000
vn 1.000000 0.000000 0.000000
vn 1.000000 0.000000 0.000000
vn 1.000000 0.000000 0.000000
vn 1.000000 0.000000 0.000000
vn 1.000000 0.000000 0.000000
vn 1.000000 0.000000 0.000000
vn 1.000000 0.000000 0.000000
vn 1.000000 0.000000 0.000000
vn 1.000000 0.000000 0.000000
vn 1.000000 0.000000 0.000000
vn 1.000000 0.000000 0.000000
vn 1.000000 0.000000 0.000000
vn 1.000000 0.000000 0.000000
vn 1.000000 0.000000 0.000000
vn 1.000000 0.000000 0.000000
vn 1.000000 0.000000 0.000000
vn 1.000000 0.000000 0.000000
vn 1.000000 0.000000 0.000000
vn 1.000000 0.000000 0.000000
vn 1.000000 0.000000 0.000000
vn 1.000000 0.000000 0.000000
vn 1.000000 0.000000 0.000000
vn 1.000000 0.000000 0.000000
vn 1.000000 0.000000 0.000000
vn 1.000000 0.000000 0.000000
vn 1.000000 0.000000 0.000000
vn 1.000000 0.000000 0.000000
vn 1.000000 0.000000 0.000000
vn 1.000000 0.000000 0.000000
vn 1.000000 0.000000 0.000000
vn 1.000000 0.000000 0.000000
vn 1.000000 0.000000 0.000000
vn 1.000000 0.000000 0.000000
vn 1.000000 0.000000 0.000000
vn 1.000000 0.000000 0.000000
vn 1.000000 0.000000 0.000000
vn 1.000000 0.000000 0.000000
vn 1.000000 0.000000 0.000000
vn 1.000000 0.000000 0.000000
vn 1.000000 0.000000 0.000000
vn 1.000000 0.000000 0.000000
vn 1.000000 0.000000 0.000000
vn 1.000000 0.000000 0.000000
vn 1.000000 0.000000 0.000000
vn 1.000000 0.000000 0.000000
vn 1.000000 0.000000 0.000000
vn 1.000000 0.000000 0.000000
vn 1.000000 0.000000 0.000000
vn 1.000000 0.000000 0.000000
vn 1.000000 0.000000 0.000000
vn 1.000000 0.000000 0.000000
vn 1.000000 0.000000 0.000000
vn 1.000000 0.000000 0.000000
vn 1.000000 0.000000 0.000000
vn 1.000000 0.000000 0.000000
vn 1.000000 0.000000 0.000000
vn 1.000000 0.000000 0.000000
vn 1.000000 0.000000 0.000000
vn 1.000000 0.000000 0.000000
vn 1.000000 0.000000 0.000000
vn 1.000000 0.000000 0.000000
vn 1.000000 0.000000 0.000000
vn 1.000000 0.000000 0.000000
vn 1.000000 0.000000 0.000000
vn 1.000000 0.000000 0.000000
vn 1.000000 0.000000 0.000000
vn 1.000000 0.000000 0.000000
vn 1.000000 0.000000 0.000000
vn 1.000000 0.000000 0.000000
vn 1.000000 0.000000 0.000000
vn 1.000000 0.000000 0.000000
vn 1.000000 0.000000 0.000000
vn 1.000000 0.000000 0.000000
vn 1.000000 0.000000 0.000000
vn 1.000000 0.000000 0.000000
vn 1.000000 0.000000 0.000000
vn 1.000000 0.000000 0.000000
vn 1.000000 0.000000 0.000000
vn 1.000000 0.000000 0.000000
vn 1.000000 0.000000 0.000000
vn 1.000000 0.000000 0.000000
vn 1.000000 0.000000 0.000000
vn 1.000000 0.000000 0.000000
vn 1.000000 0.000000 0.000000
vn 1.000000 0.000000 0.000000
vn 1.000000 0.000000 0.000000
vn 1.000000 0.000000 0.000000
vn 1.000000 0.000000 0.000000
vn 1.000000 0.000000 0.000000
vn 1.000000 0.000000 0.000000
vn 1.000000 0.000000 0.000000
vn 1.000000 0.000000 0.000000
vn 1.000000 0.000000 0.000000
vn 1.000000 0.000000 0.000000
vn 1.000000 0.000000 0.000000
vn 1.000000 0.000000 0.000000
vn 1.000000 0.000000 0.000000
vn 1.000000 0.000000 0.000000
vn 1.000000 0.000000 0.000000
vn 1.000000 0.000000 0.000000
vn 1.000000 0.000000 0.000000
vn 1.000000 0.000000 0.000000
vn 1.000000 0.000000 0.000000
vn 1.000000 0.000000 0.000000
vn 1.000000 0.000000 0.000000
vn 1.000000 0.000000 0.000000
vn 1.000000 0.000000 0.000000
vn 1.000000 0.000000 0.000000
vn 1.000000 0.000000 0.000000
vn 1.000000 0.000000 0.000000
vn 1.000000 0.000000 0.000000
vn 1.000000 0.000000 0.000000
vn 1.000000 0.000000 0.000000
vn 1.000000 0.000000 0.000000
vn 1.000000 0.000000 0.000000
vn 1.000000 0.000000 0.000000
vn 1.000000 0.000000 0.000000
vn 1.000000 0.000000 0.000000
vn 1.000000 0.000000 0.000000
vn 1.000000 0.000000 0.000000
vn 1.000000 0.000000 0.000000
vn 1.000000 0.000000 0.000000
vn 1.000000 0.000000 0.000000
vn 1.000000 0.000000 0.000000
vn 1.000000 0.000000 0.000000
vn 1.000000 0.000000 0.000000
vn 1.000000 0.000000 0.000000
vn 1.000000 0.000000 0.000000
vn 1.000000 0.000000 0.000000
vn 1.000000 0.000000 0.000000
vn 1.000000 0.000000 0.000000
vn 1.000000 0.000000 0.000000
vn 1.000000 0.000000 0.000000
vn 1.000000 0.000000 0.000000
vn 1.000000 0.000000 0.000000
vn 1.000000 0.000000 0.000000
vn 1.000000 0.000000 0.000000
vn 1.000000 0.000000 0.000000
vn 1.000000 0.000000 0.000000
vn 1.000000 0.000000 0.000000
vn 1.000000 0.000000 0.000000
vn 1.000000 0.000000 0.000000
vn 1.000000 0.000000 0.000000
vn 1.000000 0.000000 0.000000
vn 1.000000 0.000000 0.000000
vn 1.000000 0.000000 0.000000
vn 1.000000 0.000000 0.000000
vn 1.000000 0.000000 0.000000
vn 1.000000 0.000000 0.000000
vn 1.000000 0.000000 0.000000
vn 1.000000 0.000000 0.000000
vn 1.000000 0.000000 0.000000
vn 1.000000 0.000000 0.000000
vn 1.000000 0.000000 0.000000
vn 1.000000 0.000000 0.000000
vn 1.000000 0.000000 0.000000
vn 1.000000 0.000000 0.000000
vn 1.000000 0.000000 0.000000
vn 1.000000 0.000000 0.000000
vn 1.000000 0.000000 0.000000
vn 1.000000 0.000000 0.000000
vn 1.000000 0.000000 0.000000
vn 1.000000 0.000000 0.000000
vn 1.000000 0.000000 0.000000
vn 1.000000 0.000000 0.000000
vn 1.000000 0.000000 0.000000
vn 1.000000 0.000000 0.000000
vn 1.000000 0.000000 0.000000
vn 1.000000 0.000000 0.000000
vn 1.000000 0.000000 0.000000
vn 1.000000 0.000000 0.000000
vn 1.000000 0.000000 0.000000
vn 1.000000 0.000000 0.000000
vn 1.000000 0.000000 0.000000
vn 1.000000 0.000000 0.000000
vn 1.000000 0.000000 0.000000
vn 1.000000 0.000000 0.000000
vn 1.000000 0.000000 0.000000
vn 1.000000 0.000000 0.000000
vn 1.000000 0.000000 0.000000
vn 1.000000 0.000000 0.000000
vn 1.000000 0.000000 0.000000
vn 1.000000 0.000000 0.000000
vn 1.000000 0.000000 0.000000
vn 1.000000 0.000000 0.000000
vn 1.000000 0.000000 0.000000
vn 1.000000 0.000000 0.000000
vn 1.000000 0.000000 0.000000
vn 1.000000 0.000000 0.000000
vn 1.000000 0.000000 0.000000
vn 1.000000 0.000000 0.000000
vn 1.000000 0.000000 0.000000
vn 1.000000 0.000000 0.000000
vn 1.000000 0.000000 0.000000
vn 1.000000 0.000000 0.000000
vn 1.000000 0.000000 0.000000
vn 1.000000 0.000000 0.000000
vn 1.000000 0.000000 0.000000
vn 1.000000 0.000000 0.000000
vn 1.000000 0.000000 0.000000
vn 1.000000 0.000000 0.000000
vn 1.000000 0.000000 0.000000
vn 1.000000 0.000000 0.000000
vn 1.000000 0.000000 0.000000
vn 1.000000 0.000000 0.000000
vn 1.000000 0.000000 0.000000
vn 1.000000 0.000000 0.000000
vn 1.000000 0.000000 0.000000
vn 1.000000 0.000000 0.000000
vn 1.000000 0.000000 0.000000
vn 1.000000 0.000000 0.000000
vn 1.000000 0.000000 0.000000
vn 1.000000 0.000000 0.000000
vn 1.000000 0.000000 0.000000
vn 1.000000 0.000000 0.000000
vn 1.000000 0.000000 0.000000
vn 1.000000 0.000000 0.000000
vn 1.000000 0.000000 0.000000
vn 1.000000 0.000000 0.000000
vn 1.000000 0.000000 0.000000
vn 1.000000 0.000000 0.000000
vn 1.000000 0.000000 0.000000
vn 1.000000 0.000000 0.000000
vn 1.000000 0.000000 0.000000
vn 1.000000 0.000000 0.000000
vn 1.000000 0.000000 0.000000
vn 1.000000 0.000000 0.000000
vn 1.000000 0.000000 0.000000
vn 1.000000 0.000000 0.000000
vn 1.000000 0.000000 0.000000
vn 1.000000 0.000000 0.000000
vn 1.000000 0.000000 0.000000
vn 1.000000 0.000000 0.000000
vn 1.000000 0.000000 0.000000
vn 1.000000 0.000000 0.000000
vn 1.000000 0.000000 0.000000
vn 1.000000 0.000000 0.000000
vn 1.000000 0.000000 0.000000
vn 1.000000 0.000000 0.000000
vn 1.000000 0.000000 0.000000
vn 1.000000 0.000000 0.000000
vn 1.000000 0.000000 0.000000
vn 1.000000 0.000000 0.000000
vn 1.000000 0.000000 0.000000
vn 1.000000 0.000000 0.000000
vn 1.000000 0.000000 0.000000
vn 1.000000 0.000000 0.000000
vn 1.000000 0.000000 0.000000
vn 1.000000 0.000000 0.000000
vn 0.248161 -0.916196 -0.314643
vn 0.027113 -0.901202 -0.432551
vn 0.248161 -0.916196 -0.314643
vn -0.637791 0.254007 -0.727120
vn 0.647151 0.690545 0.323022
vn 0.621820 -0.417834 0.662386
vn 0.621820 -0.417834 0.662386
vn 0.621820 -0.417834 0.662386
vn 0.621820 -0.417834 0.662386
vn -0.621820 0.417834 -0.662386
vn 0.621820 -0.417834 0.662386
vn 0.621820 -0.417834 0.662386
vn 0.621820 -0.417834 0.662386
vn 0.621820 -0.417834 0.662386
vn 0.621820 -0.417834 0.662386
vn 0.621820 -0.417834 0.662386
vn -0.195124 -0.713938 -0.672473
vn 0.629790 0.029061 -0.776222
vn 0.629790 0.029061 -0.776222
vn 0.629790 0.029061 -0.776222
vn 0.629790 0.029061 -0.776222
vn 0.618043 0.078167 -0.782249
vn 0.509981 0.522518 -0.683297
vn 0.509981 0.522518 -0.683297
vn 0.509981 0.522518 -0.683297
vn 0.509981 0.522518 -0.683297
vn 0.577479 0.423502 -0.697972
vn 0.618043 0.078167 -0.782249
vn 0.618043 0.078167 -0.782249
vn 0.618043 0.078167 -0.782249
vn 0.468161 0.372453 -0.801314
vn 0.468161 0.372453 -0.801314
vn 0.468161 0.372453 -0.801314
vn 0.468161 0.372453 -0.801314
vn 0.604677 0.764958 0.221821
vn 0.604677 0.764958 0.221821
vn -0.242142 -0.872872 -0.423630
vn -0.242142 -0.872872 -0.423630
vn 0.600365 0.775059 0.197094
vn 0.035777 -0.439828 -0.897369
vn 0.035777 -0.439828 -0.897369
vn 0.012170 -0.968948 -0.246965
vn -0.601328 0.793961 -0.089615
vn 0.454158 -0.790885 0.410172
vn -0.527932 0.848871 -0.026556
vn -0.601328 0.793961 -0.089615
vn 0.274639 0.436793 0.856613
vn -0.504362 0.860574 0.070932
vn -0.512878 0.853266 0.094300
vn -0.433362 0.900840 0.026166
vn -0.566160 0.804129 0.181217
vn 0.384471 -0.863843 0.325511
vn -0.455804 0.882683 0.114515
vn -0.445095 0.889590 0.102563
vn 0.630910 -0.724630 0.277241
vn 0.630910 -0.724630 0.277241
vn 0.384471 -0.863843 0.325511
vn 0.384471 -0.863843 0.325511
vn 0.384471 -0.863843 0.325511
vn 0.384471 -0.863843 0.325511
vn -0.397905 0.886487 -0.236248
vn -0.174816 0.983422 -0.048167
vn -0.174816 0.983422 -0.048167
vn -0.379674 0.854634 -0.354187
vn -0.459957 0.817325 -0.347015
vn -0.216441 0.971666 -0.094963
vn 0.188908 0.952586 -0.238523
vn 0.188908 0.952586 -0.238523
vn -0.125718 0.979398 -0.158032
vn 0.188908 0.952586 -0.238523
vn 0.401627 0.205261 -0.892504
vn 0.066003 -0.497830 0.864759
vn 0.604677 0.764958 0.221821
vn 0.376618 0.822883 0.425467
vn 0.710676 0.147298 -0.687926
vn 0.478389 0.682208 0.552935
vn 0.401008 -0.588347 -0.702168
vn -0.906730 0.315703 0.279592
vn -0.522666 -0.412969 -0.745840
vn -0.821556 -0.424159 -0.380965
vn 0.357039 0.932960 0.045917
vn 0.377133 0.694366 -0.612884
vn -0.798811 0.038283 -0.600363
vn -0.026165 0.901115 -0.432789
vn 0.358750 0.919336 -0.161615
vn -0.828583 -0.507209 0.237041
vn -0.197824 -0.824500 -0.530156
vn -0.224363 -0.913132 -0.340370
vn -0.993957 0.109663 0.004939
vn 0.195308 0.082699 -0.977249
vn 0.069243 -0.151217 0.986072
vn -0.993957 0.109663 0.004939
vn -0.998559 -0.013024 -0.052068
vn -0.998559 -0.013024 -0.052068
vn 0.149851 0.130711 -0.980030
vn 0.149851 0.130711 -0.980030
vn -0.199701 -0.919956 -0.337342
vn 0.411434 -0.741318 -0.530255
vn -0.104430 -0.674155 -0.731170
vn 0.822682 -0.067421 -0.564490
vn 0.693742 -0.155271 -0.703288
vn -0.467306 -0.873897 -0.133898
vn 0.759390 0.143896 -0.634524
vn 0.167095 -0.527320 0.833074
vn 0.776032 -0.092957 -0.623806
vn 0.776032 -0.092957 -0.623806
vn -0.293989 0.908800 0.296061
vn 0.629326 -0.349668 -0.694033
vn -0.922469 0.113516 -0.369005
vn -0.714742 -0.584880 -0.383484
vn -0.570175 0.771522 0.282232
vn -0.315470 -0.383548 -0.867969
vn 0.959279 -0.278338 -0.048077
vn 0.363339 -0.270375 -0.891562
vn -0.883559 -0.457531 -0.099943
vn 0.553698 -0.609523 -0.567363
vn -0.878716 0.173963 -0.444517
vn -0.851456 0.484396 0.200954
vn -0.851456 0.484396 0.200954
vn -0.649666 -0.759476 0.033636
vn -0.913944 0.357398 0.192286
vn -0.886136 0.458062 -0.070306
vn -0.781697 -0.373116 -0.499734
vn -0.844241 -0.430835 0.318808
vn -0.979112 -0.180044 -0.094470
vn -0.581491 0.780200 0.230556
vn -0.859339 -0.408467 -0.307720
vn 0.340997 0.689532 0.638957
vn 0.003249 0.851645 -0.524109
vn -0.674200 0.716098 -0.180714
vn -0.674200 0.716098 -0.180714
vn -0.140563 0.924978 0.353070
vn -0.199997 -0.704776 -0.680655
vn 0.142294 0.969986 -0.197177
vn -0.199997 -0.704776 -0.680655
vn 0.071445 -0.846273 -0.527937
vn 0.276568 0.715359 0.641694
vn -0.736390 0.497801 -0.458174
vn -0.252626 0.967505 -0.010684
vn -0.644649 0.743898 -0.176190
vn -0.476842 -0.518516 -0.709763
vn 0.510824 -0.381118 -0.770589
vn 0.510824 -0.381118 -0.770589
vn 0.170984 -0.652498 -0.738249
vn -0.125844 0.777587 -0.616054
vn 0.440190 0.456250 -0.773349
vn 0.249985 0.408573 -0.877824
vn -0.073869 0.884117 0.461389
vn -0.698253 -0.713791 -0.054264
vn 0.083372 0.238356 -0.967593
vn 0.029743 0.337721 -0.940776
vn -0.349064 0.923552 -0.158765
vn -0.698253 -0.713791 -0.054264
vn -0.513157 0.816179 0.265558
vn -0.199997 -0.704776 -0.680655
vn -0.199997 -0.704776 -0.680655
vn -0.002390 -0.169972 -0.985446
vn -0.201806 0.868855 0.452068
vn 0.286911 0.415802 -0.863012
vn 0.790875 -0.138481 -0.596104
vn -0.104430 -0.674155 -0.731170
vn -0.354891 0.868014 0.347282
vn -0.915286 0.386163 0.114585
vn 0.666324 0.152270 -0.729950
vn 0.666324 0.152270 -0.729950
vn 0.370761 -0.404866 -0.835835
vn -0.043851 -0.161166 0.985953
vn 0.578634 0.393733 -0.714253
vn -0.046809 -0.849301 -0.525829
vn 0.055710 0.972564 0.225866
vn -0.258819 -0.787446 -0.559412
vn 0.776032 -0.092957 -0.623806
vn 0.167095 -0.527320 0.833074
vn 0.776032 -0.092957 -0.623806
vn 0.776032 -0.092957 -0.623806
vn 0.519267 0.039786 -0.853685
vn 0.629326 -0.349668 -0.694033
vn -0.911615 -0.270296 0.309673
vn -0.941415 0.325536 -0.088114
vn 0.305287 -0.631913 -0.712381
vn 0.620906 -0.164230 -0.766488
vn -0.956378 0.225826 -0.185322
vn -0.846403 0.229871 -0.480377
vn -0.362078 -0.718861 -0.593413
vn 0.360783 -0.784544 -0.504307
vn -0.452998 -0.820714 -0.348170
vn 0.024552 0.999582 0.015253
vn -0.016358 0.975384 0.219908
vn 0.201307 0.966362 -0.160065
vn 0.201307 0.966362 -0.160065
vn 0.201307 0.966362 -0.160065
vn 0.071293 -0.828407 -0.555570
vn -0.521394 0.852949 0.025023
vn 0.267990 0.893219 -0.361028
vn 0.459790 0.360394 0.811609
vn 0.135696 -0.830981 -0.539498
vn 0.276568 0.715359 0.641694
vn -0.736390 0.497801 -0.458174
vn 0.276568 0.715359 0.641694
vn 0.174776 -0.851228 -0.494837
vn 0.251722 -0.718463 -0.648418
vn 0.683362 0.065940 -0.727095
vn -0.730575 0.624222 -0.276778
vn -0.150570 0.895272 -0.419306
vn 0.283704 -0.099866 -0.953697
vn -0.102097 0.923840 -0.368912
vn 0.223341 0.242227 -0.944164
vn 0.247443 0.141372 -0.958533
vn -0.630784 0.576224 0.519691
vn 0.459790 0.360394 0.811609
vn -0.274611 0.816635 0.507638
vn 0.373159 0.332640 -0.866085
vn -0.159576 0.958262 0.237212
vn 0.450143 0.520928 -0.725262
vn -0.847912 0.513144 -0.133150
vn -0.976041 0.217560 0.003306
vn -0.235648 -0.879666 -0.413107
vn -0.928429 0.317785 0.192438
vn -0.410306 -0.911348 0.033072
vn -0.126380 -0.924035 0.360816
vn -0.977662 -0.088424 0.190676
vn 0.286917 -0.486643 -0.825141
vn -0.977662 -0.088424 0.190676
vn -0.417158 -0.769127 -0.484172
vn 0.066579 -0.292026 -0.954090
vn 0.312549 0.142953 -0.939083
vn 0.195308 0.082699 -0.977249
vn 0.588815 0.280593 -0.758000
vn -0.976041 0.217560 0.003306
vn -0.362022 -0.929856 0.065634
vn 0.066579 -0.292026 -0.954090
vn -0.354953 -0.884461 0.302881
vn 0.191674 0.295411 -0.935945
vn 0.186447 -0.498316 -0.846710
vn -0.977662 -0.088424 0.190676
vn -0.043851 -0.161166 0.985953
vn 0.184482 -0.066017 -0.980616
vn 0.116977 -0.841947 0.526728
vn 0.511023 -0.037925 -0.858730
vn -0.043851 -0.161166 0.985953
vn -0.332653 -0.875949 -0.349366
vn -0.183704 -0.806232 -0.562355
vn -0.380743 -0.924463 -0.020079
vn -0.046809 -0.849301 -0.525829
vn -0.839961 0.440204 0.317310
vn -0.987719 -0.110741 -0.110218
vn -0.989829 -0.018543 0.141050
vn 0.149851 0.130711 -0.980030
vn 0.229637 -0.007098 -0.973250
vn 0.620906 -0.164230 -0.766488
vn 0.620906 -0.164230 -0.766488
vn 0.149851 0.130711 -0.980030
vn -0.863760 0.123422 0.488555
vn -0.817015 -0.324656 -0.476534
vn 0.509715 0.019587 -0.860120
vn -0.906730 0.315703 0.279592
vn 0.803504 -0.224753 -0.551242
vn -0.659195 -0.028052 0.751448
vn -0.817015 -0.324656 -0.476534
vn -0.498919 0.000015 0.866648
vn -0.854377 -0.008777 0.519579
vn -0.854377 -0.008777 0.519579
vn -0.069837 -0.692693 -0.717844
vn -0.956529 -0.010751 -0.291439
vn -0.460013 0.374223 -0.805199
vn -0.937617 -0.341672 -0.064308
vn -0.258819 -0.787446 -0.559412
vn -0.258819 -0.787446 -0.559412
vn -0.660554 0.125216 0.740263
vn 0.068402 -0.496383 0.865405
vn 0.459790 0.360394 0.811609
vn -0.897008 -0.433864 -0.084483
vn 0.459790 0.360394 0.811609
vn -0.867453 0.489759 0.087536
vn -0.344062 -0.811065 -0.473069
vn -0.973837 -0.002824 0.227231
vn -0.267819 -0.867025 -0.420167
vn -0.340705 -0.909991 -0.236297
vn -0.708881 0.298517 0.639042
vn 0.672749 -0.323805 -0.665251
vn -0.426995 0.829702 0.359541
vn -0.264276 -0.866011 -0.424479
vn -0.618591 0.721775 0.310461
vn -0.060643 -0.904869 -0.421349
vn -0.177825 0.710495 -0.680863
vn -0.349993 -0.727322 -0.590346
vn 0.217404 0.972388 -0.084836
vn -0.183364 0.825323 -0.534059
vn -0.349064 0.923552 -0.158765
vn -0.349064 0.923552 -0.158765
vn 0.297258 0.038328 -0.954027
vn -0.707573 -0.045920 -0.705147
vn 0.276568 0.715359 0.641694
vn -0.392529 0.775213 -0.494941
vn -0.883942 0.394718 0.250688
vn 0.254385 0.939244 -0.230454
vn 0.254385 0.939244 -0.230454
vn 0.178690 0.087331 -0.980022
vn -0.150679 -0.635923 -0.756900
vn -0.099179 -0.307548 -0.946350
vn -0.566848 0.066694 -0.821119
vn -0.868184 0.447986 -0.213461
vn -0.261268 -0.863580 -0.431240
vn -0.516614 -0.322850 -0.793018
vn 0.276568 0.715359 0.641694
vn -0.421680 -0.905515 -0.047211
vn -0.421680 -0.905515 -0.047211
vn -0.685555 0.344465 0.641373
vn -0.351113 -0.899617 -0.259632
vn 0.724731 -0.225641 -0.651039
vn -0.876272 -0.308895 0.369771
vn -0.150744 -0.930643 -0.333437
vn 0.689304 -0.339154 -0.640183
vn 0.724731 -0.225641 -0.651039
vn 0.401378 -0.297920 -0.866106
vn -0.977662 -0.088424 0.190676
vn -0.977662 -0.088424 0.190676
vn 0.187059 0.154611 -0.970105
vn -0.861937 0.325950 0.388356
vn -0.395921 -0.725930 -0.562380
vn -0.395921 -0.725930 -0.562380
vn -0.825146 -0.527820 0.201349
vn -0.005145 0.975650 -0.219272
vn -0.498919 0.000015 0.866648
vn 0.055710 0.972564 0.225866
vn -0.108301 -0.523806 -0.844925
vn -0.683314 0.388048 -0.618466
vn -0.956529 -0.010751 -0.291439
vn -0.956529 -0.010751 -0.291439
vn 0.070429 0.954166 0.290871
vn -0.315666 -0.808268 -0.497048
vn 0.459689 -0.567168 -0.683379
vn -0.218721 0.974274 0.054323
vn -0.460013 0.374223 -0.805199
vn -0.258819 -0.787446 -0.559412
vn -0.672890 -0.029752 -0.739144
vn -0.168470 0.965179 -0.200119
vn -0.874036 -0.338025 -0.349000
vn 0.776032 -0.092957 -0.623806
vn 0.776032 -0.092957 -0.623806
vn -0.920955 -0.117377 -0.371570
vn 0.066579 -0.292026 -0.954090
vn -0.928429 0.317785 0.192438
vn 0.187059 0.154611 -0.970105
vn 0.782083 0.002144 -0.623171
vn 0.782083 0.002144 -0.623171
vn -0.949395 0.311592 0.039498
vn -0.729464 -0.575331 0.369969
vn 0.525217 0.315445 -0.790343
vn -0.437662 -0.020352 -0.898909
vn 0.455889 -0.487227 -0.744832
vn 0.455889 -0.487227 -0.744832
vn 0.455889 -0.487227 -0.744832
vn 0.455889 -0.487227 -0.744832
vn 0.329523 0.822600 0.463404
vn 0.776282 -0.604531 0.178685
vn -0.183769 -0.968611 -0.167399
vn -0.238152 -0.735040 -0.634823
vn 0.109301 -0.853470 -0.509551
vn -0.304159 -0.670226 -0.676967
vn 0.340572 0.840683 0.421026
vn 0.143631 -0.846504 -0.512641
vn 0.171153 -0.943155 0.284896
vn 0.418367 0.774246 0.474881
vn 0.287455 -0.943031 -0.167520
vn -0.807895 -0.568675 0.154644
vn -0.807895 -0.568675 0.154644
vn -0.807895 -0.568675 0.154644
vn 0.373039 0.927812 -0.002650
vn -0.851242 0.044100 0.522916
vn -0.851242 0.044100 0.522916
vn -0.913845 0.382422 0.136530
vn -0.788876 -0.606988 0.096127
vn 0.416445 0.844888 0.335763
vn -0.700799 -0.713326 0.006876
vn 0.101130 0.930383 0.352363
vn -0.700799 -0.713326 0.006876
vn -0.761574 -0.647122 0.035186
vn 0.262560 0.898820 0.350978
vn 0.155058 -0.826118 -0.541744
vn 0.155058 -0.826118 -0.541744
vn 0.155058 -0.826118 -0.541744
vn -0.761574 -0.647122 0.035186
vn 0.310331 -0.837069 -0.450566
vn 0.310331 -0.837069 -0.450566
vn 0.155058 -0.826118 -0.541744
vn -0.626588 -0.568851 -0.532726
vn -0.626588 -0.568851 -0.532726
vn -0.151825 0.057456 0.986736
vn 0.170939 -0.836328 -0.520899
vn -0.633782 -0.772695 0.035544
vn 0.418367 0.774246 0.474881
vn -0.633782 -0.772695 0.035544
vn -0.633782 -0.772695 0.035544
vn -0.633782 -0.772695 0.035544
vn 0.310331 -0.837069 -0.450566
vn 0.176802 -0.697281 -0.694651
vn 0.038433 0.949652 0.310941
vn 0.038433 0.949652 0.310941
vn 0.038433 0.949652 0.310941
vn -0.317123 -0.896595 -0.309111
vn -0.317123 -0.896595 -0.309111
vn -0.773107 -0.531142 -0.346691
vn -0.773107 -0.531142 -0.346691
vn 0.488805 0.324214 0.809910
vn 0.339615 0.842828 0.417495
vn 0.329817 0.916393 0.226816
vn 0.576075 0.709166 0.406474
vn 0.606009 0.707100 0.364365
vn -0.321866 0.517114 0.793092
vn -0.301715 0.332666 0.893477
vn 0.418367 0.774246 0.474881
vn -0.417836 0.435501 0.797340
vn -0.417836 0.435501 0.797340
vn -0.417836 0.435501 0.797340
vn -0.548126 0.408597 0.729798
vn -0.526578 0.490590 0.694289
vn -0.465747 0.844202 -0.265335
vn 0.387559 0.921166 0.035372
vn 0.411520 0.778620 0.473710
vn 0.387559 0.921166 0.035372
vn 0.620615 0.746481 0.240006
vn 0.437643 0.883883 -0.164983
vn -0.552346 -0.383511 -0.740158
vn -0.552695 -0.766597 0.326890
vn -0.503759 -0.769770 -0.392022
vn -0.552695 -0.766597 0.326890
vn -0.812489 -0.245780 -0.528634
vn -0.812489 -0.245780 -0.528634
vn -0.411376 -0.853417 0.320077
vn 0.125420 0.127619 0.983861
vn -0.832533 -0.399408 -0.383877
vn -0.832533 -0.399408 -0.383877
vn -0.294000 -0.955529 0.022979
vn 0.101127 0.333611 0.937271
vn 0.269108 0.891388 0.364704
vn 0.101127 0.333611 0.937271
vn 0.226169 0.799918 0.555858
vn -0.268454 -0.716615 -0.643735
vn -0.268454 -0.716615 -0.643735
vn -0.354953 -0.884461 0.302881
vn -0.487137 -0.855294 0.176546
vn -0.683151 -0.730225 -0.008741
vn 0.092802 0.827153 0.554261
vn -0.036359 0.664502 0.746401
vn -0.725403 -0.542397 -0.423789
vn -0.714225 -0.670310 0.201412
vn -0.805066 -0.510803 -0.301578
vn -0.626588 -0.568851 -0.532726
vn -0.725403 -0.542397 -0.423789
vn -0.552695 -0.766597 0.326890
vn -0.773107 -0.531142 -0.346691
vn -0.552695 -0.766597 0.326890
vn -0.552695 -0.766597 0.326890
vn 0.329817 0.916393 0.226816
vn -0.517726 -0.572918 -0.635393
vn 0.313423 0.616882 0.721958
vn -0.713424 -0.436961 -0.547806
vn -0.771169 -0.538144 -0.340146
vn 0.343522 0.814516 0.467501
vn -0.963356 -0.140896 0.228239
vn 0.017134 -0.728647 -0.684675
vn 0.757725 -0.637879 -0.137708
vn -0.317123 -0.896595 -0.309111
vn -0.963356 -0.140896 0.228239
vn 0.834252 -0.437348 0.335784
vn -0.963356 -0.140896 0.228239
vn -0.384893 -0.270893 -0.882312
vn 0.836013 0.542053 0.085210
vn -0.960670 -0.252013 0.116633
vn -0.384893 -0.270893 -0.882312
vn -0.301594 -0.539218 -0.786311
vn -0.960670 -0.252013 0.116633
vn -0.317123 -0.896595 -0.309111
vn -0.317123 -0.896595 -0.309111
vn -0.924765 -0.367617 0.098323
vn -0.783358 -0.596195 -0.175787
vn -0.982705 -0.176623 0.055635
vn 0.224507 -0.938003 -0.264096
vn 0.483038 0.546440 -0.684162
vn -0.224507 0.938003 0.264096
vn -0.224507 0.938003 0.264096
vn -0.885676 0.454503 0.094898
vn 0.224507 -0.938003 -0.264096
vn -0.554622 0.794304 0.247942
vn -0.559970 0.789548 0.251092
vn -0.561594 0.792521 0.237744
vn -0.474905 0.832139 0.286372
vn -0.474905 0.832139 0.286372
vn -0.165888 -0.616598 -0.769603
vn -0.767239 0.602889 0.218790
vn -0.767239 0.602889 0.218790
vn -0.751290 0.657766 0.053920
vn -0.767480 0.637560 -0.067023
vn -0.767480 0.637560 -0.067023
vn -0.767480 0.637560 -0.067023
vn 0.761590 -0.459213 0.457279
vn 0.007624 0.962851 0.269925
vn -0.767480 0.637560 -0.067023
vn 0.304829 0.941976 0.140571
vn 0.595612 0.713118 0.369743
vn -0.158029 0.003212 0.987429
vn 0.434867 -0.801908 0.409676
vn 0.587115 -0.380303 0.714608
vn 0.536586 0.843816 0.007011
vn 0.933833 -0.357667 -0.005500
vn 0.536586 0.843816 0.007011
vn 0.536586 0.843816 0.007011
vn 0.536586 0.843816 0.007011
vn 0.536586 0.843816 0.007011
vn 0.684345 -0.135453 -0.716467
vn -0.676301 -0.715958 0.173267
vn 0.714526 -0.182525 -0.675380
vn -0.181381 0.983404 -0.004131
vn 0.879469 -0.462911 0.110668
vn -0.007817 -0.088077 0.996083
vn 0.569430 0.697110 0.435646
vn 0.971668 -0.190612 0.139746
vn 0.757987 -0.651463 -0.032446
vn 0.991888 0.121208 0.038307
vn 0.380913 0.921723 -0.073021
vn 0.016817 0.880281 0.474154
vn 0.498686 0.448760 -0.741571
vn 0.929146 -0.231295 -0.288426
vn 0.435108 0.524683 -0.731703
vn -0.063227 -0.889757 0.452034
vn 0.969465 -0.216261 -0.115620
vn 0.999533 -0.029208 -0.008978
vn 0.995418 -0.064802 -0.070308
vn 0.968864 -0.244303 0.040238
vn 0.999533 -0.029208 -0.008978
vn 0.999533 -0.029208 -0.008978
vn 0.868407 -0.085853 0.488364
vn 0.973480 0.216383 -0.074262
vn -0.184644 0.956093 0.227582
vn -0.167997 -0.343899 0.923856
vn 0.521840 -0.818357 0.240779
vn 0.183821 -0.912587 0.365232
vn 0.183821 -0.912587 0.365232
vn 0.112054 0.967233 0.227826
vn -0.133902 -0.990818 -0.018698
vn 0.080712 0.937143 0.339483
vn -0.174163 -0.947281 -0.268937
vn -0.174163 -0.947281 -0.268937
vn 0.857677 -0.152875 -0.490937
vn -0.593799 -0.249335 0.765006
vn 0.996550 0.062260 0.054875
vn 0.989881 0.102867 0.097742
vn 0.943943 0.136779 -0.300439
vn 0.978196 0.197973 -0.062772
vn 0.996550 0.062260 0.054875
vn 0.990222 0.134682 -0.036347
vn 0.996550 0.062260 0.054875
vn 0.996550 0.062260 0.054875
vn 0.996550 0.062260 0.054875
vn 0.996550 0.062260 0.054875
vn 0.996550 0.062260 0.054875
vn 0.952669 0.281131 -0.115705
vn 0.978196 0.197973 -0.062772
vn 0.857677 -0.152875 -0.490937
vn -0.060127 0.843419 0.533881
vn -0.603458 0.002737 0.797390
vn 0.916574 0.217326 -0.335652
vn -0.528615 0.580169 0.619653
vn -0.546845 0.447175 0.707810
vn -0.702162 0.710513 -0.046259
vn -0.546845 0.447175 0.707810
vn -0.078406 -0.347710 0.934318
vn -0.546845 0.447175 0.707810
vn -0.117545 0.968782 0.218274
vn -0.117545 0.968782 0.218274
vn -0.293195 0.953033 0.075922
vn -0.574460 -0.078529 0.814757
vn -0.574460 -0.078529 0.814757
vn -0.574460 -0.078529 0.814757
vn -0.518835 -0.431868 0.737767
vn 0.795778 0.208431 0.568589
vn 0.832133 -0.493794 0.252432
vn 0.832133 -0.493794 0.252432
vn 0.099482 -0.236241 0.966589
vn -0.131206 0.310179 0.941580
vn -0.131206 0.310179 0.941580
vn -0.079218 0.507015 0.858289
vn -0.079218 0.507015 0.858289
vn -0.669425 0.484596 0.563060
vn -0.483206 0.711895 0.509624
vn 0.915081 0.402942 -0.016266
vn 0.746169 0.350465 -0.566045
vn -0.535964 0.791872 0.292714
vn -0.564565 0.757034 0.328886
vn -0.239965 0.916768 0.319301
vn -0.239965 0.916768 0.319301
vn -0.359476 0.876171 0.321095
vn -0.359476 0.876171 0.321095
vn -0.309865 0.877598 0.365795
vn -0.309865 0.877598 0.365795
vn -0.309865 0.877598 0.365795
vn 0.195930 -0.980146 0.030407
vn 0.362263 0.859680 0.360162
vn 0.036203 -0.961794 0.271369
vn 0.036203 -0.961794 0.271369
vn 0.036203 -0.961794 0.271369
vn 0.952935 0.048594 -0.299254
vn 0.935556 -0.084491 -0.342922
vn 0.934049 -0.140366 -0.328405
vn 0.931263 -0.043722 -0.361714
vn 0.931263 -0.043722 -0.361714
vn 0.935556 -0.084491 -0.342922
vn 0.939794 0.005972 -0.341690
vn 0.939794 0.005972 -0.341690
vn 0.931263 -0.043722 -0.361714
vn -0.235758 0.929370 0.284061
vn 0.950223 0.004994 -0.311531
vn 0.950223 0.004994 -0.311531
vn 0.950223 0.004994 -0.311531
vn 0.931263 -0.043722 -0.361714
vn -0.221296 0.963015 0.153720
vn 0.101127 0.333611 0.937271
vn 0.845432 -0.237604 -0.478318
vn 0.845432 -0.237604 -0.478318
vn 0.785725 0.587531 -0.193504
vn 0.855873 -0.216635 -0.469628
vn 0.869298 -0.215153 -0.445006
vn 0.951514 0.299157 0.071601
vn 0.951514 0.299157 0.071601
vn -0.474905 0.832139 0.286372
vn -0.474905 0.832139 0.286372
vn -0.594868 0.754714 0.276657
vn -0.275124 -0.787207 -0.551917
vn -0.554643 0.777375 0.296748
vn -0.556722 0.776800 0.294352
vn -0.556722 0.776800 0.294352
vn 0.975509 -0.179906 -0.126556
vn -0.556722 0.776800 0.294352
vn -0.556722 0.776800 0.294352
vn -0.556722 0.776800 0.294352
vn -0.556722 0.776800 0.294352
vn 0.975509 -0.179906 -0.126556
vn 0.814641 -0.452850 -0.362334
vn -0.058053 -0.807658 0.586787
vn 0.966449 0.016654 0.256317
vn 0.932175 -0.299347 0.203570
vn 0.966449 0.016654 0.256317
vn -0.472502 0.770236 0.428344
vn -0.472502 0.770236 0.428344
vn -0.496071 0.699503 0.514403
vn 0.505970 -0.824098 0.254671
vn -0.573376 0.704539 0.418168
vn -0.573376 0.704539 0.418168
vn 0.126205 -0.984305 -0.123355
vn 0.136627 -0.987184 -0.082469
vn -0.409121 0.900317 0.148491
vn 0.257358 -0.966243 -0.011921
vn -0.327447 0.036905 0.944149
vn 0.471236 0.318807 -0.822374
vn -0.397507 -0.296294 0.868446
vn 0.463264 0.298624 -0.834392
vn 0.490359 0.020351 0.871283
vn 0.763055 0.181149 -0.620429
vn 0.476442 -0.879181 -0.006590
vn -0.189256 0.837599 0.512456
vn -0.063350 0.431380 0.899943
vn -0.063350 0.431380 0.899943
vn -0.423660 0.180393 0.887677
vn -0.027281 -0.333506 0.942353
vn -0.095269 -0.295505 0.950579
vn -0.066039 -0.307309 0.949315
vn -0.027281 -0.333506 0.942353
vn -0.027281 -0.333506 0.942353
vn -0.066039 -0.307309 0.949315
vn -0.027281 -0.333506 0.942353
vn -0.027281 -0.333506 0.942353
vn -0.027281 -0.333506 0.942353
vn -0.005684 -0.374211 0.927326
vn -0.027281 -0.333506 0.942353
vn -0.005684 -0.374211 0.927326
vn -0.074690 -0.264983 0.961356
vn -0.076088 -0.270163 0.959804
vn -0.076088 -0.270163 0.959804
vn 0.081935 -0.363480 0.927992
vn 0.144178 -0.306452 0.940904
vn 0.144178 -0.306452 0.940904
vn -0.045328 -0.277958 0.959523
vn 0.003781 -0.299783 0.954000
vn -0.095360 -0.254012 0.962489
vn -0.095360 -0.254012 0.962489
vn -0.030131 -0.215350 0.976072
vn -0.045328 -0.277958 0.959523
vn -0.103518 -0.268486 0.957705
vn -0.121622 -0.177951 0.976494
vn -0.623088 -0.069959 0.779016
vn -0.107000 -0.364297 0.925116
vn -0.839363 -0.062967 0.539913
vn -0.678452 -0.254855 0.689023
vn -0.839363 -0.062967 0.539913
vn -0.841847 -0.062008 0.536143
vn 0.864952 -0.084970 0.494609
vn 0.887723 0.084639 -0.452530
vn 0.885767 0.270552 -0.377118
vn 0.885767 0.270552 -0.377118
vn -0.236093 -0.474590 0.847953
vn 0.895842 0.208778 -0.392273
vn -0.855023 -0.069102 0.513966
vn -0.855023 -0.069102 0.513966
vn 0.936998 0.051954 -0.345450
vn 0.793478 -0.054154 0.606185
vn -0.534823 -0.550662 0.640886
vn -0.374387 -0.303930 0.876049
vn 0.936998 0.051954 -0.345450
vn 0.970690 0.112852 -0.212192
vn 0.970690 0.112852 -0.212192
vn 0.982608 0.176982 0.056210
vn 0.994549 -0.027771 0.100502
vn 0.990157 -0.136916 -0.029030
vn 0.861635 0.355535 0.362187
vn 0.665446 0.568769 0.483408
vn 0.903415 0.211341 0.373063
vn 0.378461 -0.141406 0.914752
vn 0.957073 -0.207522 0.202351
vn 0.677531 -0.726421 0.115172
vn 0.975638 -0.163759 0.145994
vn 0.967040 -0.249867 -0.048987
vn 0.967040 -0.249867 -0.048987
vn 0.693614 0.680238 0.237014
vn 0.693614 0.680238 0.237014
vn -0.574460 -0.078529 0.814757
vn -0.574460 -0.078529 0.814757
vn -0.524307 -0.262250 0.810140
vn -0.574460 -0.078529 0.814757
vn -0.032366 0.995414 0.090014
vn 0.930743 -0.078837 -0.357074
vn 0.319835 0.791966 0.520091
vn 0.328222 0.871080 0.365363
vn 0.680085 -0.718665 0.144935
vn 0.728292 -0.399122 0.557039
vn 0.264440 0.963070 0.050668
vn 0.938812 0.264947 0.220078
vn -0.186435 0.031512 0.981962
vn 0.434298 -0.178471 -0.882912
vn 0.515863 0.235803 0.823579
vn 0.008964 0.176820 0.984202
vn 0.290549 0.680150 -0.673036
vn 0.519647 0.850550 -0.080813
vn -0.056308 -0.535296 0.842786
vn 0.233212 0.243784 -0.941372
vn 0.562343 -0.368200 0.740404
vn 0.814702 0.218514 -0.537134
vn 0.562343 -0.368200 0.740404
vn 0.989680 -0.030130 -0.140090
vn 0.233212 0.243784 -0.941372
vn 0.562343 -0.368200 0.740404
vn 0.233212 0.243784 -0.941372
vn 0.233212 0.243784 -0.941372
vn 0.899236 0.162927 -0.405993
vn 0.233212 0.243784 -0.941372
vn 0.864455 -0.124807 -0.486971
vn 0.927126 0.337891 -0.162072
vn 0.830898 -0.129096 -0.541242
vn 0.763289 -0.567575 0.308625
vn -0.324470 -0.569810 0.755007
vn 0.946276 -0.091710 -0.310082
vn 0.999289 0.037699 0.000840
vn 0.681585 -0.521465 -0.513338
vn 0.960445 -0.145703 0.237310
vn 0.741155 -0.643380 0.191706
vn 0.971338 -0.223699 0.080379
vn 0.180550 0.253299 0.950390
vn 0.009365 -0.046456 0.998876
vn -0.037130 -0.985948 -0.162877
vn 0.505509 0.403600 -0.762606
vn 0.165962 0.601419 0.781506
vn 0.557647 0.475812 0.680172
vn -0.048153 -0.979329 -0.196461
vn -0.048153 -0.979329 -0.196461
vn -0.037130 -0.985948 -0.162877
vn 0.412146 0.594764 0.690212
vn 0.224562 0.479549 0.848295
vn -0.259692 -0.688200 0.677452
vn -0.080660 -0.344825 0.935195
vn -0.366758 -0.097722 0.925170
vn 0.116967 0.729713 0.673675
vn 0.026121 -0.994118 -0.105107
vn -0.285795 0.014005 0.958188
vn -0.386226 0.875580 0.290153
vn -0.329206 0.234424 0.914696
vn 0.432163 0.901796 -0.000262
vn -0.048333 -0.664844 0.745417
vn 0.276136 -0.310556 0.909562
vn 0.150383 -0.078716 0.985489
vn -0.014434 -0.339396 0.940533
vn 0.463269 -0.026960 -0.885808
vn 0.727253 -0.561290 0.395041
vn 0.016360 -0.864611 0.502175
vn 0.154340 -0.981002 -0.117530
vn -0.153738 0.818116 0.554121
vn 0.048094 -0.965628 -0.255441
vn 0.913965 0.169967 -0.368483
vn -0.152277 -0.587189 0.794997
vn 0.134962 -0.779847 0.611248
vn -0.130243 0.782925 0.608330
vn 0.142883 0.982555 0.119036
vn 0.942282 -0.114630 -0.314586
vn 0.100888 0.988395 0.113567
vn 0.230609 0.897645 0.375571
vn 0.906501 -0.140198 0.398247
vn 0.388870 0.815169 0.429279
vn 0.557074 0.001702 0.830461
vn 0.061312 0.991767 0.112423
vn 0.061312 0.991767 0.112423
vn -0.528644 -0.835328 0.150871
vn 0.787221 0.261935 -0.558277
vn 0.770922 0.031776 -0.636136
vn 0.891768 -0.081396 -0.445111
vn -0.129990 0.390868 0.911222
vn 0.943464 0.100066 0.316009
vn -0.007354 0.999970 0.002381
vn 0.948994 -0.140135 0.282441
vn -0.103033 0.625773 0.773170
vn 0.239818 -0.017440 0.970661
vn 0.455102 0.209279 0.865497
vn 0.802391 -0.274337 0.530007
vn 0.802391 -0.274337 0.530007
vn 0.811225 0.576560 0.097427
vn 0.971993 -0.077567 0.221840
vn 0.971993 -0.077567 0.221840
vn 0.802689 0.176315 0.569740
vn 0.823947 0.258683 0.504177
vn 0.971993 -0.077567 0.221840
vn 0.971993 -0.077567 0.221840
vn 0.959513 0.188277 0.209489
vn 0.971993 -0.077567 0.221840
vn 0.661130 -0.617068 0.426772
vn 0.417596 0.660223 0.624275
vn 0.417596 0.660223 0.624275
vn 0.945026 0.248627 0.212390
vn 0.571565 0.567416 0.592750
vn 0.519444 -0.785600 -0.336171
vn 0.403713 -0.896261 0.183661
vn 0.505509 0.403600 -0.762606
vn 0.805417 0.429087 -0.408886
vn -0.402355 -0.125158 0.906888
vn 0.782692 0.505115 0.363665
vn 0.350143 -0.931207 -0.101260
vn 0.260424 -0.865507 -0.427876
vn 0.464300 -0.333151 0.820632
vn 0.902515 0.051891 -0.427521
vn 0.856196 -0.335132 0.393212
vn 0.056553 0.667214 0.742716
vn 0.936058 0.211395 0.281260
vn -0.108806 0.055724 0.992500
vn 0.230609 0.897645 0.375571
vn 0.557074 0.001702 0.830461
vn 0.100888 0.988395 0.113567
vn 0.100888 0.988395 0.113567
vn 0.761152 -0.417064 0.496694
vn -0.007354 0.999970 0.002381
vn -0.129990 0.390868 0.911222
vn 0.087116 -0.966364 0.241973
vn -0.658740 -0.751107 -0.043591
vn 0.756770 -0.627061 0.184644
vn 0.756770 -0.627061 0.184644
vn 0.987011 -0.042156 0.155020
vn 0.122403 -0.961116 -0.247534
vn 0.122403 -0.961116 -0.247534
vn 0.053213 -0.958362 -0.280553
vn -0.011701 0.996191 0.086410
vn -0.767239 0.602889 0.218790
vn 0.673251 0.712807 0.196566
vn 0.194616 -0.925340 0.325378
vn 0.671684 0.573103 0.469460
vn 0.647258 0.501751 -0.573850
vn 0.819088 0.434102 -0.375034
vn 0.802268 0.528444 -0.277691
vn 0.833798 -0.434253 -0.340888
vn 0.171820 -0.984913 -0.020593
vn 0.360372 0.778631 0.513679
vn 0.946428 -0.225352 0.231282
vn 0.145594 -0.978263 0.147660
vn 0.178598 0.954556 -0.238590
vn 0.600189 -0.619187 -0.506340
vn 0.105116 0.950855 -0.291247
vn 0.924741 -0.239776 0.295570
vn 0.693790 -0.208752 0.689259
vn 0.542476 -0.785832 0.296965
vn 0.308791 -0.246343 0.918675
vn 0.030074 -0.936413 0.349609
vn 0.605428 0.117371 0.787198
vn 0.025797 -0.954132 -0.298273
vn 0.025797 -0.954132 -0.298273
vn -0.152277 -0.587189 0.794997
vn 0.048094 -0.965628 -0.255441
vn 0.485633 0.003404 -0.874156
vn 0.289659 0.956567 -0.032831
vn 0.289659 0.956567 -0.032831
vn 0.954686 -0.215800 0.204950
vn 0.398577 0.719498 0.568735
vn 0.557074 0.001702 0.830461
vn 0.984267 -0.176365 0.010677
vn 0.994279 0.039457 -0.099261
vn 0.736655 -0.470103 0.486151
vn 0.087116 -0.966364 0.241973
vn 0.860252 0.150912 0.487023
vn 0.692656 -0.572051 0.439301
vn 0.823947 0.258683 0.504177
vn 0.823947 0.258683 0.504177
vn 0.692656 -0.572051 0.439301
vn 0.989044 -0.041989 0.141523
vn 0.097107 0.974937 -0.200172
vn 0.151733 -0.982036 0.112168
vn 0.192945 0.912836 -0.359864
vn -0.030981 -0.549845 0.834692
vn 0.102551 -0.994332 0.028070
vn -0.017254 -0.529252 0.848289
vn -0.017254 -0.529252 0.848289
vn 0.928313 -0.131834 0.347642
vn 0.087116 -0.966364 0.241973
vn -0.470891 -0.876707 -0.098221
vn -0.470891 -0.876707 -0.098221
vn -0.387498 -0.871038 -0.301892
vn 0.989474 -0.112537 0.090980
vn -0.084508 -0.841639 0.533387
vn -0.285213 0.873945 0.393541
vn -0.128737 -0.991580 -0.014022
vn -0.305172 0.766790 0.564715
vn 0.440661 -0.697625 0.564923
vn 0.081398 0.966335 0.244071
vn -0.853629 -0.274090 -0.442936
vn 0.832632 0.094597 0.545688
vn 0.769466 -0.638464 -0.016885
vn 0.122131 -0.888426 0.442474
vn -0.470022 -0.764587 -0.441006
vn 0.097107 0.974937 -0.200172
vn -0.140963 0.727875 0.671065
vn -0.140963 0.727875 0.671065
vn 0.210696 0.975966 0.055655
vn 0.210696 0.975966 0.055655
vn 0.769466 -0.638464 -0.016885
vn 0.775506 -0.610868 0.159471
vn 0.229815 0.948537 -0.217860
vn 0.195405 0.968537 -0.154122
vn 0.532727 -0.111544 0.838904
vn -0.987401 -0.147049 -0.058449
vn 0.481524 -0.128515 0.866959
vn 0.481524 -0.128515 0.866959
vn 0.481524 -0.128515 0.866959
vn 0.469312 -0.822413 0.321531
vn 0.001272 0.764582 0.644525
vn 0.592616 0.720119 0.360880
vn 0.768820 -0.202641 0.606509
vn 0.946734 -0.247910 0.205514
vn 0.679264 0.025556 0.733449
vn 0.888350 -0.175002 0.424510
vn 0.259541 0.821509 0.507702
vn 0.259541 0.821509 0.507702
vn 0.484284 0.664086 0.569613
vn 0.430893 0.772718 -0.466088
vn 0.708297 -0.640920 -0.295868
vn 0.036679 -0.974907 -0.219571
vn 0.036679 -0.974907 -0.219571
vn -0.356348 -0.649230 0.671950
vn 0.291186 -0.948350 0.125872
vn 0.259396 -0.930954 0.256980
vn 0.497173 -0.645423 0.579870
vn 0.869665 0.000782 0.493642
vn 0.902515 0.051891 -0.427521
vn 0.049242 0.996823 -0.062602
vn 0.781148 0.622740 -0.044754
vn 0.969469 0.088964 0.228506
vn 0.998426 0.051059 0.023209
vn 0.748083 0.127206 -0.651299
vn 0.748083 0.127206 -0.651299
vn 0.979105 0.012835 0.202948
vn 0.979105 0.012835 0.202948
vn 0.969469 0.088964 0.228506
vn 0.711076 0.391640 -0.583943
vn 0.805417 0.429087 -0.408886
vn 0.579825 -0.294146 -0.759790
vn 0.782692 0.505115 0.363665
vn 0.913965 0.169967 -0.368483
vn 0.142883 0.982555 0.119036
vn -0.020409 -0.209029 0.977696
vn 0.018997 0.547062 0.836877
vn 0.498970 0.143839 0.854599
vn 0.043447 0.420970 0.906033
vn 0.767623 -0.428516 0.476581
vn 0.360442 0.881396 0.305324
vn 0.486282 0.872496 0.047757
vn 0.249341 -0.957055 -0.147904
vn 0.288046 0.918955 0.269353
vn 0.288046 0.918955 0.269353
vn 0.251212 -0.957252 -0.143391
vn 0.123267 0.992010 -0.026856
vn 0.062630 -0.817289 0.572814
vn 0.415572 0.669628 0.615547
vn 0.447494 -0.121037 0.886058
vn 0.640541 -0.701036 -0.313459
vn 0.700323 0.690649 -0.180419
vn 0.478229 0.573217 0.665372
vn 0.459227 0.832233 0.310643
vn 0.487390 0.461972 0.740967
vn 0.841828 0.380199 0.383112
vn 0.833744 0.545487 0.085530
vn 0.751531 0.628411 0.200751
vn 0.751531 0.628411 0.200751
vn 0.984667 -0.052417 -0.166381
vn 0.983284 0.167452 -0.071498
vn 0.953186 -0.001909 -0.302378
vn -0.416678 -0.187999 0.889402
vn 0.986768 0.162138 0.000217
vn -0.188841 -0.868130 0.459010
vn 0.436559 -0.221108 0.872082
vn 0.990065 -0.117015 -0.077962
vn -0.298699 -0.903950 0.306030
vn 0.845669 0.079580 -0.527741
vn 0.986681 0.093503 -0.133106
vn -0.600811 0.188112 0.776943
vn -0.600811 0.188112 0.776943
vn -0.692845 -0.249816 0.676430
vn -0.276955 -0.370974 0.886383
vn -0.539001 -0.399725 0.741416
vn -0.190795 -0.383666 0.903547
vn -0.114728 -0.302989 0.946063
vn -0.005013 -0.999922 -0.011421
vn -0.400662 0.195716 0.895078
vn -0.159284 -0.256179 0.953416
vn -0.163705 -0.299848 0.939836
vn 0.930743 -0.078837 -0.357074
vn -0.518835 -0.431868 0.737767
vn -0.300141 -0.342143 0.890423
vn -0.370135 -0.434059 0.821336
vn -0.370135 -0.434059 0.821336
vn -0.155557 -0.270800 0.949984
vn 0.955113 -0.247038 -0.163500
vn 0.955113 -0.247038 -0.163500
vn 0.930743 -0.078837 -0.357074
vn -0.373290 -0.344213 0.861494
vn -0.208389 -0.355331 0.911216
vn -0.672659 0.135957 0.727355
vn -0.672659 0.135957 0.727355
vn 0.930743 -0.078837 -0.357074
vn -0.612547 -0.396107 0.684021
vn -0.348701 -0.308969 0.884842
vn 0.145336 0.977801 0.150942
