ply
format ascii 1.0
element vertex 36
property float x
property float y
property float z
property uchar red
property uchar green
property uchar blue
end_header
0.000000 0.250000 0.230000 255 0 0
0.043412 0.246202 0.230000 255 0 0
0.085505 0.234923 0.230000 255 0 0
0.125000 0.216506 0.230000 255 0 0
0.160697 0.191511 0.230000 255 0 0
0.191511 0.160697 0.230000 255 0 0
0.216506 0.125000 0.230000 255 0 0
0.234923 0.085505 0.230000 255 0 0
0.246202 0.043412 0.230000 255 0 0
0.250000 -0.000000 0.230000 255 0 0
0.246202 -0.043412 0.230000 255 0 0
0.234923 -0.085505 0.230000 255 0 0
0.216506 -0.125000 0.230000 255 0 0
0.191511 -0.160697 0.230000 255 0 0
0.160697 -0.191511 0.230000 255 0 0
0.125000 -0.216506 0.230000 255 0 0
0.085505 -0.234923 0.230000 255 0 0
0.043412 -0.246202 0.230000 255 0 0
-0.000000 -0.250000 0.230000 255 0 0
-0.043412 -0.246202 0.230000 255 0 0
-0.085505 -0.234923 0.230000 255 0 0
-0.125000 -0.216506 0.230000 255 0 0
-0.160697 -0.191511 0.230000 255 0 0
-0.191511 -0.160697 0.230000 255 0 0
-0.216506 -0.125000 0.230000 255 0 0
-0.234923 -0.085505 0.230000 255 0 0
-0.246202 -0.043412 0.230000 255 0 0
-0.250000 -0.000000 0.230000 255 0 0
-0.246202 0.043412 0.230000 255 0 0
-0.234923 0.085505 0.230000 255 0 0
-0.216506 0.125000 0.230000 255 0 0
-0.191511 0.160697 0.230000 255 0 0
-0.160697 0.191511 0.230000 255 0 0
-0.125000 0.216506 0.230000 255 0 0
-0.085505 0.234923 0.230000 255 0 0
-0.043412 0.246202 0.230000 255 0 0
